/* XPM */
static char *_cacda868cca4490c146b0fcdc39d8d01qVOn7YhzvRbyRew[] = {
/* columns rows colors chars-per-pixel */
"64 64 234 2 ",
"   c #000E0A",
".  c #09180D",
"X  c #031614",
"o  c #011E1A",
"O  c #0A2418",
"+  c #1A2D14",
"@  c #293B15",
"#  c #022D29",
"$  c #07322C",
"%  c #0F312C",
"&  c #023633",
"*  c #013C35",
"=  c #0B3B36",
"-  c #02373A",
";  c #023C3A",
":  c #0C3E3A",
">  c #163B37",
",  c #133C3A",
"<  c #344714",
"1  c #3D5317",
"2  c #004237",
"3  c #01433C",
"4  c #0C423C",
"5  c #00493F",
"6  c #1E4F30",
"7  c #18463A",
"8  c #2F522D",
"9  c #254B35",
"0  c #274939",
"q  c #385934",
"w  c #3C6538",
"e  c #475C1A",
"r  c #4A661A",
"t  c #526C1C",
"y  c #596A1E",
"u  c #5B7416",
"i  c #577719",
"p  c #56741B",
"a  c #5C761B",
"s  c #5D781D",
"d  c #627A16",
"f  c #61761C",
"g  c #637B1D",
"h  c #697E1E",
"j  c #415935",
"k  c #4B6729",
"l  c #566C27",
"z  c #5D7522",
"x  c #5B7526",
"c  c #5D7921",
"v  c #517139",
"b  c #617423",
"n  c #647C22",
"m  c #697E22",
"M  c #687E29",
"N  c #707F24",
"B  c #043E42",
"V  c #024543",
"C  c #0C4744",
"Z  c #014B44",
"A  c #024D4B",
"S  c #174A4A",
"D  c #00524C",
"F  c #08544A",
"G  c #005A4D",
"H  c #18544B",
"J  c #004C51",
"K  c #005553",
"L  c #015C54",
"P  c #0B5854",
"I  c #015C5B",
"U  c #0C5C5B",
"Y  c #1C5553",
"T  c #155854",
"R  c #1B5B5B",
"E  c #244E4B",
"W  c #2C5C45",
"Q  c #285749",
"!  c #345D44",
"~  c #275854",
"^  c #395956",
"/  c #006255",
"(  c #01635C",
")  c #09615C",
"_  c #01685E",
"`  c #11635E",
"'  c #00705E",
"]  c #386448",
"[  c #0A5961",
"{  c #026562",
"}  c #016B64",
"|  c #016C6A",
" . c #096868",
".. c #007365",
"X. c #00746B",
"o. c #017A6C",
"O. c #08796B",
"+. c #11726E",
"@. c #006D71",
"#. c #017572",
"$. c #027C74",
"%. c #0B7B73",
"&. c #017C7B",
"*. c #147C72",
"=. c #187D79",
"-. c #445F40",
";. c #416044",
":. c #66801F",
">. c #6D821D",
",. c #72841E",
"<. c #75881F",
"1. c #678023",
"2. c #6C8323",
"3. c #6D842A",
"4. c #6E8928",
"5. c #738523",
"6. c #788723",
"7. c #778821",
"8. c #758924",
"9. c #798A22",
"0. c #798A26",
"q. c #7C8C26",
"w. c #7D8D26",
"e. c #72852A",
"r. c #78872C",
"t. c #758A29",
"y. c #7D8D29",
"u. c #7E8F29",
"i. c #7D8D2A",
"p. c #7E9026",
"a. c #7F9029",
"s. c #7F902A",
"d. c #7B8B31",
"f. c #018275",
"g. c #01837B",
"h. c #0A837B",
"j. c #0D8579",
"k. c #008A7D",
"l. c #15837A",
"z. c #17867C",
"x. c #818E26",
"c. c #808E2A",
"v. c #809026",
"b. c #81912C",
"n. c #047E81",
"m. c #018682",
"M. c #018C83",
"N. c #0B8B84",
"B. c #008C89",
"V. c #0C8B88",
"C. c #168B86",
"Z. c #01958B",
"A. c #0B9589",
"S. c #00998C",
"D. c #18968A",
"F. c #019996",
"G. c #029C94",
"H. c #179D93",
"J. c #219394",
"K. c #00A48F",
"L. c #01A395",
"P. c #08A494",
"I. c #02A49A",
"U. c #0DA49A",
"Y. c #02AC9C",
"T. c #0BAB9D",
"R. c #14A59B",
"E. c #1A9EA2",
"W. c #00A5A3",
"Q. c #08AAA5",
"!. c #18ABA4",
"~. c #03B3A6",
"^. c #01B5AA",
"/. c #0AB4A9",
"(. c #03BBAD",
"). c #15B6AA",
"_. c #02BDB3",
"`. c #0BBBB2",
"'. c #09BAB5",
"]. c #16B8B1",
"[. c #1CBDB3",
"{. c #23B7AD",
"}. c #23BDB3",
"|. c #28BEB8",
" X c #34BCB9",
".X c #0CC2AC",
"XX c #02C3B4",
"oX c #0BC2B5",
"OX c #01C5BB",
"+X c #09C7B9",
"@X c #01CCBC",
"#X c #0CCDBE",
"$X c #14C3B4",
"%X c #1AC3B6",
"&X c #14C6BB",
"*X c #19C6B8",
"=X c #14CBBC",
"-X c #1DCDBC",
";X c #02D2BD",
":X c #09D5BA",
">X c #1AD3BC",
",X c #24C3BA",
"<X c #23CABE",
"1X c #03C5C1",
"2X c #03CCC2",
"3X c #0BCCC2",
"4X c #15CEC3",
"5X c #1CCBC3",
"6X c #19C8C4",
"7X c #02D3C4",
"8X c #0CD5C4",
"9X c #04D3CB",
"0X c #0CD4CB",
"qX c #03D9CA",
"wX c #0CDBCC",
"eX c #14D4C5",
"rX c #1AD2C4",
"tX c #13D4CB",
"yX c #1DD3CB",
"uX c #13DACC",
"iX c #19DACA",
"pX c #0BDBD1",
"aX c #1ADCD3",
"sX c #18DCD5",
"dX c #24CBC1",
"fX c #21D2C5",
"gX c #25D7CB",
"hX c #29DAD3",
"jX c #0BE2CB",
"kX c #09E7D4",
"lX c #15E2D4",
"zX c #17E6D8",
"xX c #26E6D9",
"cX c #1FE6E3",
/* pixels */
"p p p c n n n 3.2.5.5.5.8.0.0.w.a.w.q.u.b.w.w.w.u.u.c.u.w.0.5.5.0.u.u.u.5.,.5.u.u.u.w.w.w.w.u.a.u.a.b.9.5.5.1.1.1.n z a s b b b ",
"p p s s s s g 1.5.t.q.u.u.w.u.u.w.u.u.u.w.w.c.b.u.u.c.w.w.0.5.5.0.u.u.u.0.5.5.0.u.w.w.w.w.w.w.u.u.a.c.7.,.5.h n g s s s a s b b ",
"p p p p p u d h 5.8.w.u.u.w.u.u.u.b.c.w.w.c.c.w.w.w.c.w.w.w.,.5.w.a.a.u.u.u.5.5.w.w.w.w.w.w.w.w.a.w.a.9.5.2.g a p p p a p p s z ",
"p p p a s g g >.>.5.5.5.5.6.q.c.b.c.w.w.w.b.x.9.w.w.w.w.p.w.<.,.w.a.w.u.b.u.7.<.w.w.w.w.w.w.w.w.w.w.b.w.5.2.f u s s s s s s c x ",
"p p p s n 1.2.2.,.5.5.,.,.,.0.c.u.w.w.w.c.w.w.c.w.w.w.w.p.w.<.,.w.w.w.a.b.9.7.9.w.w.w.w.w.w.p.a.w.w.a.0.8.e.n g s p p p a s z x ",
"s s s s m e.5.5.0.w.u.0.5.5.0.a.u.u.b.a.0.<.9.b.w.w.x.w.a.w.5.5.w.w.w.a.w.7.7.a.w.w.w.w.x.x.w.w.c.u.u.0.8.e.3.3.g s a a g n b b ",
"a s a f m 5.8.0.u.b.b.w.5.5.0.a.u.u.u.0.<.,.9.u.u.u.c.w.w.u.5.5.0.u.a.w.q.7.9.b.u.w.w.c.w.w.w.u.u.u.u.0.5.2.1.3.2.2.2.2.2.2.e.3.",
"a g a a h 5.0.w.c.c.u.0.5.5.8.a.u.w.5.,.5.0.u.u.u.u.b.w.u.u.5.5.7.a.b.w.9.9.q.b.u.u.w.w.w.w.u.u.0.0.u.5.2.h a g 5.8.5.5.,.,.5.5.",
"d d a f h 8.w.w.w.c.u.0.5.2.5.2.1.2.5.>.8.q.u.u.0.w.w.w.b.0.,.5.5.u.u.0.9.w.w.q.u.c.x.9.w.w.q.8.2.2.e.t.2.g a p n 2.8.5.7.0.t.e.",
">.h f f h 8.p.v.v.w.0.5.h g n 2.e.2.2.5.8.8.8.5.5.w.w.w.a.0.5.5.5.u.u.0.0.w.w.w.u.c.c.x.x.u.8.5.h g m 3.n g a p g 2.8.0.q.u.q.0.",
",.>.m m 5.8.w.p.b.w.5.>.f u a 1.2.n h 1.5.5.5.5.5.w.w.w.u.v w ] ] ] q 7.q.w.w.w.w.w.w.b.c.0.5.>.a a a g s s s a g 2.w.w.w.c.u.u.",
"<.5.5.5.5.0.w.q.b.w.8.2.g u p s g a a g 1.5.5.5.0.u.a.0.w W 6 F A D R W 8.b.q.w.7.5.9.u.u.0.5.2.s p p p a a s a g 5.w.u.w.w.u.u.",
"9.0.5.N ,.7.w.a.a.u.0.2.h n s s s s s s n 2.5.5.w.w.u.! ] @ %.X.&.( O P ~ b.w.u.5.,.5.u.u.0.5.5.1.n s p p a a a g 2.w.q.u.w.u.u.",
"w.w.0.5.6.q.w.a.a.a.w.5.2.1.n s s g s p s 2.5.5.w.w.! R % I $.}.{.&.} L H x a.a.8.5.5.0.u.q.8.5.3.2.n p p s p a f 2.e.t.0.0.0.u.",
"9.w.u.c.c.c.w.u.c.c.w.7.8.5.2.n s s s p s n 5.5.q.-.Q O ( M.%XhXhX,X$.D F ~ q.u.0.5.5.5.u.u.0.5.5.5.n a p s p p a n 2.2.2.5.e.r.",
"w.w.u.u.q.x.x.u.c.u.u.u.q.8.2.2.s s s s s g h 5.8.~ V  .g.$XhX8X#XrXf.} D S e q.u.5.5.5.u.b.q.<.5.5.h p p s p a u s g g h m 2.e.",
"0.w.u.w.x.c.c.u.b.u.u.u.w.q.0.5.n p s p c s m 5.q S U | %XaX8X@X;X#X).o./ P E >.5.5.5.5.0.u.b.0.2.2.n p p s p c p a a a p s n 3.",
"5.0.u.u.c.c.c.c.b.c.c.b.a.a.u.5.1.a s s c s m 5.8 6 I &.rX8X@X;X;X;XfXg.} 2 ~ r 5.0.0.5.5.u.u.5.8.e.1.s s s s p p p s s p p a s ",
"5.0.u.c.c.c.c.c.x.u.u.a.a.a.w.5.2.p p s p a 2.5.7 7 I  X4X@X;X;X7X@XeX*XX.L H 0 u.b.u.5.5.0.0.5.5.5.2.g a s s p p p s n s s s s ",
"5.8.u.u.u.u.u.w.w.w.u.e.;.] ] W W W W ! p a 2.n 4 2 ( |.oX7X@X@X3X1X8X=Xo.D # = 5.b.w.5.5.2.5.5.5.2.3.1.a p s p s p p p u u a a ",
"2.5.w.u.u.u.0.<.5.5.5.! W D V I K P B R H Q t f = 3 ( ].'.OXOX3X1X1X3X*XD.D 3 3 n 5.< H Y Y H T Y ^ M 2.s p s s s s s s s g n n ",
"5.8.u.u.b.u.5.>.5.2.n H P } X.$.X.#.{ D L P S . : Z L |.5X_.XXOX1X1XeX<XN.D 3 5   E H U D G L D D C Q n p p s s p s n 1.2.e.e.e.",
"0.0.u.u.u.0.5.>.8.2.n H A o.}.-X>X*Xg.X.( o S S : # I G.gXtXOX_.OX1XyXI.%.D 2 ; ~ Y D K ( X.o.$.{ A ~ p p p s s a n 2.8.e.t.5.5.",
"u.u.u.0.5.5.2.2.1.n n Y K $.4X8X7X8X4X,Xg.L o C - D { T.^.sXlXqXqXsXI.Z.C.D * C S o { $.g.}.dX}.X.D S t s s p s a n e.w.q.u.q.0.",
"a.q.5.m g n n n n c s E K #.rX@X@X8X8XeX*Xg.I V B A H./.^.tXkXkXkX#XS.M.C.G ; C X I f.$XeX8XuX5XX.K T t p a a s a h 2.w.p.w.u.u.",
"8.8.5.g a a a u p p p Q K #.4XXX7X2X7X2XeX%X&.K - K !.(.(.^.kXjX;XL.Z.g.z.A V K { m.*X#X7X7XOX5Xf.D R t p p p p a g 1.8.q.w.u.d.",
"t.8.2.g a s f a p p p ~ I #.fX@X_.2X7X7XwXyXU.} D K Y.XX(.^.lX@X$XS.M.o._ A V K $.%X6XOX2X9X1X5XX.A R t s s s s a a g 1.8.8.r.d.",
"2.1.g f f n n a s s s Q K | dX8XOX@X@XqXwX8X$XP.( _ ).&X`.`.^.yXL.M.f.O._ D V } %XxX3X3X0X1X_.%XX.P Y r s p p s p s s g 1.5.e.r.",
"u g g m 2.2.n g a a p Q A | <XzXjXXXOX0XlXwX(.).A.( G.Q.Q.`.^.=XS.$.%.{ ) V } T.uXjX7X2X7XOXiX).X.A S r p p s s p c z a g 2.3.3.",
"u g 2.e.5.5.2.2.n g g q B I U.>XuXuXsX0X0X@XXXY.R.} S.F.Q.G.`.~.M.$.*.+.I } G.^.@XkXlX0X3X+X$Xf.( C ~ e s a a s p c c p a n m M ",
"u g 2.5.5.5.5.5.e.2.1.q & B } S.L.yXhXsXcXOX`.$.X.$.f.M.]././.G.k.$.| I ( H.).oXOX2XzXtX&X<Xk...D H E t n s p u p z z s s f n 3.",
"g h 5.0.u.u.t.5.e.5.2.l > V D $.Z.G.F.W.tX_.Q.M.%XfX&X&XS.~.).Z.&.} { L $.U.Y.oXOX_.OXW.G.A.j.G 3 4   2.3.2.n s a p z n s a n 3.",
"5.5.5.0.u.p.9.w.7.u.u.0.9 * V K %.g.B.G.I.eX~.k.eX;XaXtX+XS.T.k.X.{ A { N.P.I.^.XX_./.G.M.j.G 5 * 3   2.e.4.2.2.n s a s f n 3.e.",
"8.5.5.0.u.w.w.w.a.a.u.u.k * ; A =.$.g.M.L.=X/.M.uXkX2X9XaX&Xk.X.} K { C.M./.4X^.(.oXF.m.V.l.A 2 3 * > y 2.1.1.e.3.2.2.1.m 2.e.e.",
"0.0.0.0.w.w.p.p.a.a.u.b.M = 2 V L z.h.f.k.I.|.k.@X@X2X2X2XxX[.X.( } =.V.G.&XzX8XOX'.B.&.C.L V * 3 = > @ 1.s g m 2.8.5.5.5.5.0.0.",
"w.w.w.w.w.w.w.w.7.5.5.b.0.= 2 3 D %.f.f.M.M.{.M.8X7X9X9XpX8XdXX.$.h.C.V.G.^.8XXX(.G.B.D.=.A D 3 ; 7 % + g p a s h 2.5.,.7.q.w.u.",
"9.w.w.w.w.w.w.w.5.,.5.u.0., 3 5 A L C.f.h.V.V.f.#X7XOX9XqXlXfXk.} h.N.M.Q.Q.'.oX`.Z.f.C.L I ) ` 4 = , + s p s a h 2.5.7.a.b.0.0.",
",.5.9.w.w.w.w.w.u.5.5.u.5., 3 V 3 G l.%.%.C.h.} (.lXpX9XpX0XI.Z./ h.A.Z.Z.F.Q.Q.Z.M.N.j.L  .I U 3 ; 4   p p g g 2.5.t.u.b.c.5.5.",
",.,.5.q.u.w.w.w.b.0.5.0.5.: - V ) ( K =.j.f.h.( Y.XXlXzXsXW.B.M.( $.$.&.m.m.g.g.X.o.z./ / _  .) D 3 Z H ^ t s m 3.2.t.b.b.w.8.5.",
"5.5.5.q.a.u.w.a.u.0.5.u.8.C - C U  .J  .} X.h.( T.=X@XOXtXG.B.M.D./ o.,XdX6XfX[.#.} *.G ( _ { D A L I T E < a 2.3.2.8.w.9.9.u.q.",
"5.8.0.w.w.a.w.9.0.<.,.5.v V & V A [ [ J { { | L P.<XXXXXrXS.k.N.R...%XfX3X3XiX-Xo.} L L { { { X.o.} } U S 1 s g 2.2.2.5.>.<.u.u.",
"5.0.w.u.u.0.5.5.0.5.5.5.] ` D ( I { I I { { } ( ..T.~.oXoXI.g.k.o.$XrXOX2X9X2XfXX.( A  .I | {.,X}.{.| K R 1 a a u g g 2.5.9.u.0.",
"q.u.b.a.0.5.2.2.2.2.2.5.W L X.{.-X-X%XS.I I  .I _ }.Q.`.+XK.k.o.~.uX0X2X7XOX@X*X{ J K I M.<X&X&X<X}.#.K Y 1 a s p u u g >.8.0.5.",
"0.0.w.8.>.g g g f f g m Q G o.-X:X;XwX&XM.{ ( { I  XU.).$XL.' T.XXpXsX1XXX0XyXF.[ | | m.<X4X_.&X%X!.#.K S 1 s 1.2.2.n 2.7.q.u.5.",
"8.8.5.2.g u u s u u a a W / o..XXXXX;XeX<Xm.I K I J.E.!.B.#.L.K.^.lXtXaXyX5XF.n.I @.m.G.gXeX4X`.!.o.{ T ~ e n 2.3.e.e.u.u.u.0.N ",
"8.5.2.1.g u a g n g a p w L X.{.fX@X7X8XrXG.h.K { $.&.&.&.U.T.Y.oXtXY.G.G.S.&.{ | C.N.S.%X-XgXk.| K V ; E z 2.2.2.5.5.0.0.0.0.5.",
"2.>.h g f u g 2.2.2.h s k K D h.[.3XqXzXrXG.M.} *X=XtX4XQ.&.M.).].F.S.k.k.k.h.L l.$.C.X.$.g.X.} D V & 7 @ 8.8.8.0.q.0.0.0.0.u.r.",
"2.:.u u u g 5.w.5.2.1.g p H 3 K | dXrXeXdXG.f...&X8X7X0XyXQ.g.Q.U.M.Z.g.o.o.G O.%.o.} } } X.} A V # 4 > f 5.u.b.a.b.u.a.9.7.0.e.",
"2.g p a g 5.u.c.0.8.5.1.g k 6 O A I o.f.f.H.N.| [.oX@X@XpXtXW.B.m.f.f.$.o.#.( ( } } %.} l.=.Z V # 7 $ l u.u.u.w.a.u.u.a.a.0.5.N ",
"2.h h n 2.t.u.u.u.0.5.2.1.1.k 8 . ; Z G ..f.C.#.{ ].XX7XwXuX3XW.X.$.$.X.=.( I X.| } l.=.I A A o 7 % e w.u.a.u.u.a.u.u.u.w.0.5.N ",
",.8.5.5.t.w.u.w.u.u.q.8.5.2.2.k 9 # D D *.} %.( | X.].=XuXuX'.).R.( } C. .A | } z.*.L A C # ; * % k w.u.b.a.a.a.w.w.b.b.b.q.5.5.",
"9.a.q.8.0.u.w.v.w.a.a.q.8.8.8.5.k 6 o A L *.+.*.| } } ,XgX*X`.).H.} D ( D { =.=.L D 3 & ; S : 7 M w.w.a.w.u.u.a.w.c.u.a.q.7.5.e.",
"w.b.b.9.w.a.p.p.w.a.u.w.u.u.0.,.5.l 9   V D L *.z.} } ( M.U.!.R.X.} D L D U V C C ; * C 4 > y 0.b.a.w.w.9.7.8.0.u.0.0.5.>.>.8.d.",
"0.u.u.q.p.a.q.9.q.a.b.u.u.c.q.<.5.8.x 8 # 3 Z D D A A K K l.N..._ 3 5 A 3 3 ; : & = : : b w.w.w.w.c.w.9.<.5.2.2.5.5.5.5.2.5.0.d.",
"5.5.8.q.u.u.0.,.5.q.b.u.u.u.w.5.5.w.0.2.k = & * 3 V ; ; F A D V V 3 3 & 4 4 4 & , > z 8.w.w.w.c.w.c.w.7.5.5.2.f f n 2.2.8.8.5.r.",
"5.,.5.u.a.a.0.5.5.8.0.5.0.c.q.,.w.b.b.w.0.z q 9 : = : : & ; 2 2 2 : = , , = 0 q 0.u.u.u.u.u.c.c.x.b.w.7.5.8.2.f b s n n 1.2.5.e.",
"3.5.9.p.p.w.e.3.5.1.1.1.2.5.8.8.a.u.u.w.9.,.g s n z e 8 9 7 9 0 0 8 0 j k 2.0.5.9.u.b.a.u.u.u.c.x.x.w.w.7.5.>.h s p p s g g n M ",
"n 1.,.9.w.t.e.2.h g g g g 2.8.a.u.u.u.w.q.8.m b p s s s g h >.5.t.0.5.5.5.0.u.q.6.9.0.u.b.b.w.x.x.w.w.w.0.8.5.>.g s p p a s s z ",
"a a g >.2.2.n g s a a p u g 8.a.u.a.a.u.q.8.2.z p s s p p p g m 5.5.5.,.5.0.u.u.0.5.5.0.a.a.w.x.x.w.u.u.u.q.5.5.2.n n s a s z z ",
"p u u s n z s s s s s s p g 2.t.w.a.u.u.8.2.n z s s p p p a s g 1.2.8.5.5.0.0.9.c.0.,.5.w.w.w.x.w.w.w.u.a.u.0.5.5.2.1.g s s c x ",
"p p a s z z s s s p c s a g 1.8.w.u.u.u.8.g a p s p a s s s s a s 1.e.w.u.w.6.,.u.0.5.<.9.w.v.x.v.w.w.w.a.a.q.7.>.5.1.h s s s z ",
"s s s s z s s s s p p p p g 2.5.c.u.u.u.8.d u f g g n n g a a a p h 5.t.u.u.0.5.5.5.5.<.9.w.b.x.v.v.w.w.c.a.w.0.>.5.2.2.g s s p ",
"a u f n n n s p c s s p a h 5.5.w.u.u.u.7.>.h m 2.2.e.e.m h h g g n 2.5.0.u.u.0.5.5.5.5.0.u.c.c.w.c.w.u.u.c.u.u.5.2.1.1.g g z z ",
"y a g 2.3.3.n s s s s s g 1.t.w.u.u.u.u.q.8.5.2.e.5.t.t.5.2.e.2.n 2.5.5.5.u.u.w.u.0.5.0.u.u.c.c.u.c.u.u.u.u.c.u.8.2.g s a p z x "
};
