/* XPM */
static char *_7b9c6ac829f4132c42af5b88337ff06KmD7tglMufhsDKJA[] = {
/* columns rows colors chars-per-pixel */
"32 32 187 2 ",
"   c #0E392E",
".  c #153928",
"X  c #033B36",
"o  c #063F3E",
"O  c #0C3D3A",
"+  c #1E4C2F",
"@  c #074436",
"#  c #03433D",
"$  c #0B433C",
"%  c #0E4838",
"&  c #154335",
"*  c #184E35",
"=  c #154438",
"-  c #1C4B39",
";  c #254126",
":  c #2A4E2B",
">  c #365023",
",  c #32502A",
"<  c #395628",
"1  c #3C5C2C",
"2  c #244D33",
"3  c #245033",
"4  c #2C5635",
"5  c #2C5835",
"6  c #275A3F",
"7  c #335D35",
"8  c #3A5B31",
"9  c #2D653F",
"0  c #336236",
"q  c #3D6333",
"w  c #3D6738",
"e  c #516B1C",
"r  c #5C761C",
"t  c #5D791C",
"y  c #61771B",
"u  c #627A1D",
"i  c #687D1E",
"p  c #405F30",
"a  c #446421",
"s  c #44642D",
"d  c #4A6529",
"f  c #436A2F",
"g  c #4C692F",
"h  c #5B6F25",
"j  c #526A2C",
"k  c #547222",
"l  c #5D7621",
"z  c #5B7824",
"x  c #567029",
"c  c #436334",
"v  c #446A3B",
"b  c #4F7037",
"n  c #537234",
"m  c #5C7936",
"M  c #607622",
"N  c #657D22",
"B  c #697E23",
"V  c #63772A",
"C  c #677D2B",
"Z  c #697E29",
"A  c #033F40",
"S  c #044441",
"D  c #0E4141",
"F  c #054944",
"G  c #024E4A",
"H  c #03524C",
"J  c #0B534E",
"K  c #035A4F",
"L  c #185644",
"P  c #185649",
"I  c #155E4D",
"U  c #195848",
"Y  c #025351",
"T  c #045B55",
"R  c #0A5B57",
"E  c #035E59",
"W  c #095A59",
"Q  c #125C52",
"!  c #235D49",
"~  c #1C6249",
"^  c #04625D",
"/  c #09645D",
"(  c #2B6343",
")  c #046462",
"_  c #096563",
"`  c #046B63",
"'  c #096C64",
"]  c #026469",
"[  c #056C6A",
"{  c #096E6C",
"}  c #057165",
"|  c #04736B",
" . c #0B736C",
".. c #057A6E",
"X. c #056F71",
"o. c #047471",
"O. c #047C73",
"+. c #0A7B72",
"@. c #0B7E7B",
"#. c #6C811F",
"$. c #6D8323",
"%. c #6A8129",
"&. c #738623",
"*. c #788725",
"=. c #768824",
"-. c #7B8B25",
";. c #7D8D26",
":. c #728529",
">. c #738529",
",. c #768929",
"<. c #76892B",
"1. c #788B29",
"2. c #7B8B28",
"3. c #7A8C29",
"4. c #7E8D29",
"5. c #7E9027",
"6. c #7F9029",
"7. c #038175",
"8. c #04847B",
"9. c #0A847B",
"0. c #038C7F",
"q. c #08887C",
"w. c #10877E",
"e. c #808E26",
"r. c #808E29",
"t. c #078580",
"y. c #0D8683",
"u. c #038E85",
"i. c #0B8B83",
"p. c #038F8A",
"a. c #088B88",
"s. c #128983",
"d. c #049182",
"f. c #0C9786",
"g. c #06968A",
"h. c #0D928A",
"j. c #049C8F",
"k. c #0B9A8C",
"l. c #0E9794",
"z. c #049B94",
"x. c #0D9D91",
"c. c #059E98",
"v. c #0BA296",
"b. c #05A499",
"n. c #0DA39A",
"m. c #06A898",
"M. c #0BAB9E",
"N. c #10A49A",
"B. c #06A7A5",
"V. c #06AEA6",
"C. c #0BACA3",
"Z. c #0AA9A8",
"A. c #10A6A0",
"S. c #0BB3A6",
"D. c #05B5A9",
"F. c #0AB4AB",
"G. c #07B8A9",
"H. c #0FBAAA",
"J. c #12B2A7",
"K. c #12B3AA",
"L. c #1AB5AC",
"P. c #11BDAD",
"I. c #03BDB1",
"U. c #0BBDB4",
"Y. c #0FBFBC",
"T. c #11B7B0",
"R. c #07C4B6",
"E. c #0CC4B4",
"W. c #03C5BC",
"Q. c #0BC5BC",
"!. c #02CABC",
"~. c #0CCCBD",
"^. c #18C2B5",
"/. c #12C5BB",
"(. c #18C5B8",
"). c #18CBBF",
"_. c #08D0BD",
"`. c #05CDC3",
"'. c #0CCDC2",
"]. c #12CCC1",
"[. c #04D2C3",
"{. c #0CD4C6",
"}. c #05D5CD",
"|. c #0CD4CB",
" X c #11D1C1",
".X c #10D5CB",
"XX c #07E5CF",
/* pixels */
"r r t N &.1.-.;.4.4.4.4.4.4.-.&.1.4.&.-.4.;.;.4.4.;.&.$.y t t M ",
"r r t i &.*.-.;.r.;.;.;.;.;.;.&.;.4.4.&.;.;.;.;.4.;.&.y r r r l ",
"r t B &.=.=.&.;.4.4.-.;.e.;.;.&.-.;.-.=.;.;.;.;.4.4.&.B t t y N ",
"r t $.-.r.4.&.3.3.*.&.;.4.4.;.&.-.4.=.;.4.;.;.;.1.1.$.N $.$.$.$.",
"u y $.;.;.*.B $.$.$.*.-.;.;.-.$.:.1.-.;.4.e.;.=.$.$.N r $.*.-.,.",
"&.$.&.;.4.&.y y N i $.&.-.1.n 9 ! v ,.;.-.4.4.$.y t t r B 3.4.4.",
"-.&.=.;.4.*.B y t t N &.,.v L w.9.J v 4.&.&.3.&.%.t r r N ,.-.4.",
";.4.e.r.4.-.*.$.t r y &.n P i.).(.| U C -.&.4.-.&.y r r t N $.&.",
"-.4.r.r.r.4.5.*.u t t B 5 { /.[._.v.T c &.&.1.-.&.u r r r t t N ",
"*.4.r.;.;.,.m b f f k M * s.'.!.`.E.[ - :.&.%.%.%.N t r r t t t ",
"&.4.4.=.&.b Q ' ' R U , $ i.Q.W.`./.| @ 1 6 I I ! n t t t N N Z ",
"3.1.&.$.$.w [ P.E.v.^ O S t.].[.`.C.[ # D ^ i.l.^ 0 r t y &.,.,.",
"3.$.y y t w { R.[.{.S.E G v.R.XX!.g.` S ^ C.'./.[ 0 r r y &.3.3.",
"$.i y t t w { /.!.[.{.k.` M.U.~.b.O.T E K.'.`.U.[ 7 r r t u &.,.",
"y B $.B y s W P.{.|.|.G.q.z.Z.D.u.{ ^ g.{.|.'.M./ 7 r t t t y %.",
"i &.*.&.&.x $ | C.Y.'.b.v.M.C.b.O.) 9.S.!.Q.C...F < N y t t t Z ",
"&.*.4.;.4.,.3 G O.p.S.M.~.|.E.d.) [ x.I.I.c.9.H X > $.%.N N B :.",
"-.-.;.;.-.4.q # ` q.g.N.!.`..Xx.| y.C.'.D.a.{ F O ; r y $.&.*.1.",
"=.-.;.;.=.-.c # K +.9.i.R.}.|.v...u.c.V.j.9.^ W $ . e y $.-.4.-.",
"&.-.4.;.-.-.q A T _ +...S.|.U.u...h.C.n.O.} ^ E H J 8 y $.3.;.-.",
"*.-.;.-.&.&.( Y _ ) ) ` x.E.S.0.k./.{./.| T [ h.h.) 4 r i #.=.3.",
"3.3.$.i i N ~ f.E.S.o.E s.K.m.d.R.|.`.F.] [ J./.L.[ 4 t u i *.-.",
"&.$.y r y r ~ f.~.{.C.` @.l.p.m.Q.U.S.t.X.h.^.J.O.H 8 $.&.*.-.*.",
"$.y y $.$.u 0 ^ A. XS.q.H.~.Z.c.b.u.7.} +.+.7.` S & h -.3.3.-.1.",
"#.y $.4.3.$.z : F } q.9.v.`.|.B.8.O.| ` |  ./ #   d 3.4.4.4.;.:.",
"=.*.3.4.4.-.=.N : # '  .o.M.].T.9.) ^ ' / G o & d -.6.4.4.6.-.&.",
";.;.;.-.;.4.4.=.N , # T E ^ 9.i.^ G G F o & p Z ;.;.=.&.&.*.&.1.",
"&.-.4.*.*.1.1.=.-.,.d + % $ S F # O = 2 s Z ;.r.e.=.&.i y N $.&.",
"$.=.3.$.B i $.*.4.4.=.M k a 1 s g j V :.-.4.4.r.e.;.*.#.y r t N ",
"r y N y t r y =.4.4.=.N t t t i $.&.-.;.-.=.;.e.e.4.4.&.$.y t l ",
"r t l t r t y $.4.4.#.t y N t r u =.3.=.*.&.-.e.e.;.4.-.&.$.t r ",
"r N N t r t u *.4.4.&.$.$.:.$.N N &.-.1.*.&.4.r.r.4.4.4.&.N t l "
};
