/* XPM */
static char *_0a23d4782654587fef79d305c9d04602lcjB5fWk1UZp6sK[] = {
/* columns rows colors chars-per-pixel */
"32 32 201 2 ",
"   c #553D2B",
".  c #5E3E2B",
"X  c #5C761C",
"o  c #5E791C",
"O  c #637B1D",
"+  c #56452E",
"@  c #5D442B",
"#  c #5B4935",
"$  c #5D493A",
"%  c #614327",
"&  c #63432A",
"*  c #6C432C",
"=  c #6C492D",
"-  c #764524",
";  c #794625",
":  c #71442C",
">  c #7A452B",
",  c #744C2D",
"<  c #794B2D",
"1  c #7E512F",
"2  c #624B33",
"3  c #6C4C35",
"4  c #634A3F",
"5  c #6C4D3C",
"6  c #724D32",
"7  c #7B4D31",
"8  c #704F38",
"9  c #65513A",
"0  c #6C543D",
"q  c #7E5134",
"w  c #74553D",
"e  c #7E5239",
"r  c #7F5A3E",
"t  c #5C7621",
"y  c #607524",
"u  c #657D21",
"i  c #697E23",
"p  c #6A7F37",
"a  c #644B41",
"s  c #655244",
"d  c #675649",
"f  c #6D5C4C",
"g  c #745B44",
"h  c #7B5B44",
"j  c #6C5E51",
"k  c #7B5E53",
"l  c #765E59",
"z  c #74614D",
"x  c #6E6151",
"c  c #6F665B",
"v  c #776555",
"b  c #76655A",
"n  c #766A5C",
"m  c #7B6C5B",
"M  c #7C6F65",
"N  c #7D7465",
"B  c #7C7466",
"V  c #7C7D71",
"C  c #884F2F",
"Z  c #814E30",
"A  c #835333",
"S  c #865736",
"D  c #8B5936",
"F  c #835439",
"G  c #845A3A",
"H  c #8C5C3B",
"J  c #975E37",
"K  c #925B3A",
"L  c #9B5E3B",
"P  c #A15E3B",
"I  c #96623D",
"U  c #9C633D",
"Y  c #A2643D",
"T  c #8C5E43",
"R  c #915F42",
"E  c #826044",
"W  c #8D6145",
"Q  c #86634D",
"!  c #8F654A",
"~  c #956344",
"^  c #9C6442",
"/  c #93664C",
"(  c #9A674A",
")  c #93694A",
"_  c #9F6948",
"`  c #856B5E",
"'  c #986B55",
"]  c #88715C",
"[  c #A16542",
"{  c #A26944",
"}  c #A36548",
"|  c #A36D4C",
" . c #A5724F",
".. c #A26E51",
"X. c #A27254",
"o. c #A97555",
"O. c #AC7A5B",
"+. c #806561",
"@. c #836D65",
"#. c #847361",
"$. c #83756B",
"%. c #857969",
"&. c #897B6C",
"*. c #857E75",
"=. c #69811E",
"-. c #678020",
";. c #6D8322",
":. c #6C812B",
">. c #728523",
",. c #788727",
"<. c #768924",
"1. c #7B8C26",
"2. c #72842A",
"3. c #778929",
"4. c #7C8C29",
"5. c #7F9028",
"6. c #6D8431",
"7. c #6E8339",
"8. c #728535",
"9. c #7C8C37",
"0. c #788A3A",
"q. c #7E903C",
"w. c #718645",
"e. c #7B8C43",
"r. c #7B8B4C",
"t. c #7A8759",
"y. c #818E29",
"u. c #81912D",
"i. c #808E36",
"p. c #839334",
"a. c #86953C",
"s. c #818E43",
"d. c #869444",
"f. c #8B9943",
"g. c #8A9748",
"h. c #818E58",
"j. c #829151",
"k. c #879559",
"l. c #919C52",
"z. c #90995A",
"x. c #93A14A",
"c. c #878D6F",
"v. c #8C9965",
"b. c #959F63",
"n. c #969C6B",
"m. c #838175",
"M. c #898977",
"N. c #85857D",
"B. c #8D877B",
"V. c #8A8A7D",
"C. c #928577",
"Z. c #958E7E",
"A. c #899174",
"S. c #969D72",
"D. c #99967D",
"F. c #9BA572",
"G. c #9DA47A",
"H. c #8D8C83",
"J. c #898C86",
"K. c #958E82",
"L. c #979787",
"P. c #93958B",
"I. c #9A968A",
"U. c #9C998D",
"Y. c #979B91",
"T. c #9C9C92",
"R. c #A19685",
"E. c #A2988B",
"W. c #A69E93",
"Q. c #9DA380",
"!. c #9DA38A",
"~. c #A4AA8A",
"^. c #ABB382",
"/. c #A6AC94",
"(. c #A8AD95",
"). c #A3A39B",
"_. c #A7A69C",
"`. c #A9A79D",
"'. c #B3AC9F",
"]. c #ACB296",
"[. c #B1B39A",
"{. c #ABABA2",
"}. c #B2AEA2",
"|. c #AEB2A4",
" X c #ADB1AA",
".X c #B3B0A4",
"XX c #B9B2A4",
"oX c #B3B5AC",
"OX c #BBB6A9",
"+X c #B3B8AA",
"@X c #BABAAF",
"#X c #B4B7B0",
"$X c #B9B6B2",
"%X c #B5B9B3",
"&X c #BBBCB3",
"*X c #BBBFB9",
"=X c #C2BBAF",
"-X c #C2BEB4",
";X c #BDC0B4",
":X c #C6C7B2",
">X c #C6C8C2",
/* pixels */
"X X o u >.3.1.1.1.f.^.;X%XoXoXY.J.{. X%X>X:Xx.1.4.1.>.-.O o o y ",
"X X o O >.<.1.p.l.S._.$X$X.XI.H.m.`.&X&X#X{.G.a.5.1.>.O X X X t ",
"X o i >.<.<.i.G.|.J.T.}.I.%.m v f ] R.XX'.H.Y.(.l.4.>.u o o O y ",
"X o ;.1.4.a.G.@X&XP.M v 2 @ & & & @ 2 g b N |.*X(.d.;.u ;.;.;.;.",
"O O ;.1.u.n.OX-X}.%.+ @ = , , < < , , = @ f E.@X@XD.6.X -.<.1.3.",
">.;.>.1.d.U.-XOX%.@ = , A K K I ~ H D 1 , & s Z.{.).t.O i 4.4.4.",
"1.>.<.u.n.K.U.%.@ = A J U Y Y U ^ ^ [ I D , & g Z.P.M.p u 3.3.4.",
"1.4.1.d.[.).b # = S I U Y Y Y U ^ U [ [ [ H 7 & n V V t.u u -.2.",
"1.4.y.z.&X}.z % A I U U U { U U U U Y Y [ ^ K < # M.).L.p X o u ",
"<.4.y.b.&XE.0 , I U U Y U { U I U U { ^ ^ I I S @ D.:X{.w.X o o ",
">.4.4.F.@XC.& S U U U U U [ U U ^ ^ } U U I I I = #.=X{.r.O u i ",
"4.3.3.G.}.&.& H ^ I I U I ^ I U P P Y P Y U U ^ 8 z OX`.j.;.3.3.",
"4.;.:.c.m.m e |  .| | _ _ | | { { { | | ..' ' ' h v '.U.h.;.4.4.",
";.O 8.!.W.@.Q X...( ~ R R ~ ~ ~ ) ) ) ] ` ` @.+.k v K.H.h.O >.3.",
"O i 0./.$X$.5 F F e F e e e F F G r h g s s d s 4 x V.N.t.o O :.",
"O >.9.~.$X$.. * * * : : : : : : > > , * & & & &   s m.P.h.o o i ",
">.<.p.~.oX$.3 ~ / ) ) ~ ~ ^ ^ ~ ^ ^ ^ ^ ~ ~ ^ ~ r 9 U.%Xv.u i 2.",
"1.1.p.S.H.j 3 H < < S ^ ^ ^ ^ I U U ^ U I I ^ ^ G 0 W.&Xv.>.<.3.",
"<.1.p.S.).N 3 > < F Z K U U U U Y Y U L L U [ ^ G 3 B.).k.1.4.1.",
">.1.p.Q.&XC.3 < T ( D C U U U U U Y U U L U Y U G 2 N N.j.1.1.1.",
"<.1.d.M.T.&.3 D Z Z > K U U U U U U U U L U U ^ G g I.P.e.=.<.4.",
"4.4.q.!.N.b 8 ~ D A K ^ U ^ U I U U I U I I ^ ^ G g '.oXr.O <.1.",
">.;.8.(.).d 3 ~ ^ ^ { ^ ^ ^ ^ I ^ ^ ^ ^ I ~ ^ ~ G g .X+Xj.<.1.,.",
"-.O 0.(.#Xb h X. . .o.| ..o.O.O.O.O.X.' / / / ! E z T.oXl.1.1.3.",
"=.O e.].&XM g T W T T T T W / / ) ! Q k k l b b f c J.Y.g.4.1.2.",
"<.<.a.~.oXN 3 q q A F F A q 7 7 q e w 5 4 4 a 4 $ d *.N.d.5.1.>.",
"1.1.f.A.N.n . - - ; ; ; - - - ; - - : * * * * * & s B.V.s.<.>.3.",
">.1.g.(.P.j 3 ~ ^ ^ ^ ^ ^ ^ I I U I ~ ^ ~ ~ ^ I G g W.oXr.u ;.>.",
";.<.g.].{.b 3 ~ ^ U { ^ U ^ U U U ^ U [ L U Y U H g E..Xr.X o u ",
"X O e.(.`.m 6 ^ [ [ [ [ U [ U U U [ U Y L Y Y U H w &.V.e.O o t ",
"X o 7.!.U.m 6 I [ [ [ [ ^ [ U ^ ^ } [ L L ^ ^ ^ H w K.Y.0.=.o X ",
"X O 6.A.H.#., I [ [ [ [ ^ [ ^ ^ ^ } } L L ^ ^ ~ G g K.Y.0.O o t "
};
