/* XPM */
static char *be708beea55641b6f052777d6d4a847b6qs1DhYAA8Fhs2jw[] = {
/* columns rows colors chars-per-pixel */
"64 64 240 2 ",
"   c #281807",
".  c #3B220B",
"X  c #392816",
"o  c #45260F",
"O  c #572708",
"+  c #5C2B0B",
"@  c #432C15",
"#  c #482C19",
"$  c #562D17",
"%  c #463119",
"&  c #4D331C",
"*  c #54341B",
"=  c #5A3419",
"-  c #5C331C",
";  c #673518",
":  c #733D1E",
">  c #4A3625",
",  c #553A24",
"<  c #5A3B23",
"1  c #553A29",
"2  c #4F3E31",
"3  c #603620",
"4  c #5E6F1F",
"5  c #5B7416",
"6  c #577419",
"7  c #5C761B",
"8  c #5D781C",
"9  c #60771C",
"0  c #657B1A",
"q  c #637B1D",
"w  c #59412B",
"e  c #5A4737",
"r  c #5B503C",
"t  c #69462B",
"y  c #724323",
"u  c #73462C",
"i  c #7A462A",
"p  c #734B2C",
"a  c #7B4C2C",
"s  c #7B512F",
"d  c #644A36",
"f  c #6C4D33",
"g  c #744B31",
"h  c #754B34",
"j  c #7B4D33",
"k  c #6A513A",
"l  c #745134",
"z  c #7C5435",
"x  c #74543B",
"c  c #7C543A",
"v  c #7C5A3D",
"b  c #5C7622",
"n  c #5E7921",
"m  c #627625",
"M  c #647C22",
"N  c #697E23",
"B  c #647D29",
"V  c #707F24",
"C  c #5B554C",
"Z  c #695647",
"A  c #785B48",
"S  c #6B5A54",
"D  c #745D54",
"F  c #765E58",
"G  c #79634D",
"H  c #69645A",
"J  c #746254",
"K  c #78685A",
"L  c #6B6B64",
"P  c #796B64",
"I  c #6E7066",
"U  c #7A7567",
"Y  c #74746D",
"T  c #7C7C73",
"R  c #7A7B76",
"E  c #834E2D",
"W  c #83522E",
"Q  c #8F572F",
"!  c #835434",
"~  c #895534",
"^  c #8A5837",
"/  c #83553B",
"(  c #855A3D",
")  c #8B5B3C",
"_  c #945636",
"`  c #955C35",
"'  c #9B5D36",
"]  c #945D3B",
"[  c #9B5E3A",
"{  c #A25D39",
"}  c #8E623B",
"|  c #9B6236",
" . c #96613C",
".. c #986539",
"X. c #9C623D",
"o. c #A2643D",
"O. c #A5673E",
"+. c #845C42",
"@. c #8A5D42",
"#. c #845E49",
"$. c #975F42",
"%. c #8D6144",
"&. c #856348",
"*. c #8C654B",
"=. c #946343",
"-. c #9C6442",
";. c #9D6944",
":. c #94644A",
">. c #9B6649",
",. c #966A49",
"<. c #9C6A4B",
"1. c #9F754F",
"2. c #866C57",
"3. c #986B52",
"4. c #87725C",
"5. c #9D7254",
"6. c #A26542",
"7. c #A36A44",
"8. c #A96A44",
"9. c #A26B4A",
"0. c #A86A48",
"q. c #A8724B",
"w. c #A66F50",
"e. c #A37253",
"r. c #AA7555",
"t. c #A77958",
"y. c #AE7A5A",
"u. c #B17C5A",
"i. c #837363",
"p. c #8B706B",
"a. c #877A6B",
"s. c #97776A",
"d. c #867E73",
"f. c #A67963",
"g. c #66801F",
"h. c #6D821E",
"j. c #72841E",
"k. c #75881F",
"l. c #678124",
"z. c #6C8323",
"x. c #6C832B",
"c. c #738523",
"v. c #788726",
"b. c #758924",
"n. c #7B8C25",
"m. c #73852A",
"M. c #74892A",
"N. c #7C8D2A",
"B. c #7D9025",
"V. c #7F902A",
"C. c #6D8332",
"Z. c #788B33",
"A. c #778B44",
"S. c #7E9148",
"D. c #7E8376",
"F. c #818D26",
"G. c #808E29",
"H. c #819127",
"J. c #81912C",
"K. c #818F34",
"L. c #859433",
"P. c #88963B",
"I. c #879746",
"U. c #929E46",
"Y. c #8A9959",
"T. c #939E55",
"R. c #B3825F",
"E. c #94A24D",
"W. c #98A458",
"Q. c #8D9867",
"!. c #8F926B",
"~. c #868475",
"^. c #84847C",
"/. c #8C867B",
"(. c #8B8A7E",
"). c #938473",
"_. c #948B7C",
"`. c #988B7B",
"'. c #8E9575",
"]. c #949C75",
"[. c #95997B",
"{. c #959C7C",
"}. c #B88667",
"|. c #B18A70",
" X c #99A466",
".X c #9BA478",
"XX c #A6B071",
"oX c #C69476",
"OX c #7D8381",
"+X c #868982",
"@X c #878985",
"#X c #8B8B84",
"$X c #948D82",
"%X c #978E84",
"&X c #8E9187",
"*X c #9C9284",
"=X c #93948B",
"-X c #979788",
";X c #9A948A",
":X c #979A94",
">X c #9C9C94",
",X c #A29789",
"<X c #A49E93",
"1X c #9BA285",
"2X c #9DA29C",
"3X c #A5AB89",
"4X c #A7A697",
"5X c #A3A49C",
"6X c #ABAB9C",
"7X c #B3A99A",
"8X c #ABB197",
"9X c #B4B39B",
"0X c #AAACA5",
"qX c #B2ADA3",
"wX c #B3AFA9",
"eX c #ADB2A6",
"rX c #B3B4AB",
"tX c #B9B5A8",
"yX c #BDB9AD",
"uX c #AFB4B0",
"iX c #B6B6B1",
"pX c #B6BAB3",
"aX c #BCBCB4",
"sX c #BDBEB9",
"dX c #C2B9AC",
"fX c #C1BEB4",
"gX c #BBC48E",
"hX c #BFC3A9",
"jX c #BDC2B3",
"kX c #BEC2BB",
"lX c #C1C89A",
"zX c #C5CBA7",
"xX c #C3C1B6",
"cX c #C3C4BC",
"vX c #C9C6BA",
"bX c #C4C6C1",
"nX c #C8CAC3",
"mX c #D4D5C6",
"MX c #D9E0C1",
"NX c #E9EBE4",
/* pixels */
"6 7 7 n M M l.x.z.c.c.c.b.v.v.n.V.n.N.W.XXgXMXNXbXuX2X0XpXkXuX2X+XR >X:X:X0XkXsXNXNXMXlXJ.n.N.V.N.V.H.n.c.c.l.l.l.M n 7 8 m m m ",
"6 7 8 8 8 8 q l.c.M.N.V.N.n.n.N.n.N.L.P.W.hX0X:XrXuXpXkXkXrX:XD.+X+XaXbXaX0XuX0X>XiXmXzXXXJ.B.V.V.V.G.b.j.c.0 M 8 8 8 8 7 8 m m ",
"6 6 6 5 5 5 9 0 c.b.N.N.N.n.N.n.N.J.U.3X:X&X5XcX0XkXnXaX>X^.(.=XT T 0XxXvXaXcXvXcX5X>XrXlXE.n.n.V.B.H.n.c.z.q 7 5 6 6 7 6 6 8 n ",
"6 6 6 7 8 q 0 h.h.c.c.c.c.v.n.L. XXX3X=X0XbXvXxXvXaX6X;X(./._._.d.U ;X4XaXaXaXrXrXxXsXR #XzXW.N.V.B.H.n.c.z.9 6 8 8 8 8 8 8 n b ",
"6 8 7 8 M l.z.z.j.c.c.j.j.j.T..X8X5XR I 5XvXfXtX6X,X$X_.*X,X*X`.a.P )._.4XyXxXxXxXyXrX#XR +X:X9XP.n.V.n.b.m.M q 8 7 6 6 7 8 n b ",
"8 8 8 8 N m.c.c.v.n.N.v.c.W.3X6XpXkX5XR T >X4X4X*X`.a.K Z e e e % 1 J K ).,X7X9X4X>X~.H +XbXpX2X9XI.N.n.b.m.x.x.q 8 7 7 q q m m ",
"7 q 7 9 N c.b.v.N.G.J.n.W.1XqXvXpXnX0XI H _.,Xa.k w % @ & , , , w , * . @ w J `.`.~.K U 5XbXbXpX>X3XP.n.c.z.l.x.z.z.z.z.z.z.m.m.",
"7 q 7 7 0 c.v.n.G.G.N.T.[.6XnXrXiXaX6X~.K K Z X & , t l x l h g l t x f x , @ & Z Z J $XrXrXpXkXcX:X3Xc.z.0 7 q c.b.c.c.j.j.c.c.",
"9 9 7 7 0 b.B.B.n.H.I.'.4XvXxXyXxX6X,X~.r X % d f l l p t p p p p p t p l l f f ,   K *X;XfXxXpXiXaXR  Xz.q 7 5 M z.b.c.b.v.M.c.",
"h.0 9 7 0 b.B.H.H.n.].-XvXyXyXxXyX4Xa.r > w f f t p s a p a a a a a y y p p t l t x % e _.,XtXxXvXrX5X&XS.8 7 6 q z.b.v.n.N.N.n.",
"j.h.N N c.b.n.B.H.W.~.9XvXyXvXyXtXi.w & w f l p p W ~ ~ ^ ] ] ) =.] ! ! ! a p p j l t @ e ).*X4XtXjXyX^.].B 7 7 q z.N.n.n.G.N.N.",
"k.c.c.c.c.v.n.n.J.].T tXxXfXyX9Xa.w @ t c t y a ~ ] X.-.-.-.7.;.9.9.-.;.;.] W ~ y t g f % w ).).$XaXjX-X^.Q.6 7 q c.N.N.n.n.N.N.",
"n.v.c.V j.b.n.B.T.[.T $XdX7X;X%X% , f l p a ~ ` X.7.8.6.X.X.X.[ -.=.X.;.0.-.] X.) y p l t % d ,X~.&XqX#X@XD.A.7 q z.N.N.N.n.n.N.",
"n.n.v.c.v.n.n.H.Q.3X<XU ~.$X;X2 & t c p p ) 6.X.X.o.O.o.X.X.[ [ 6.-.` X.7.X.X.8.q.a ) ; t x o G *XT -X(.(.^.D.6 q z.m.M.v.v.n.N.",
"n.n.N.G.G.G.F.I..XnXxX~.C U U . A p p / ] X.o.' ' o.o.o.o.o.6.6.9.6.[ -.7.o.[ 8.8.7.) ! u p l . ~.-X^.&X^.&XY A.7 M l.z.z.c.m.N.",
"n.n.N.N.F.F.F.Q.tXrXyX;XP Z   k h u ! >.;.X.X.' o.O.8.8.o.o.X.[ 6.X.[ 6.0.o.[ 8.8.` 9.>.a p j t > _.U I I C L Y.5 8 q q 0 N z.m.",
"v.n.N.n.F.G.L.!.kXrXvX4X~.w % x y Q  .;.] ;.X.X.X.O.o.8.X.X.6.` 8.| | | o.8.o.8.8._ $.-.>.a i z @ r K U (.=X5XD.C.7 6 6 6 8 N x.",
"c.v.N.N.G.G.P.].bXkXaX4X).> w s a ` X.;.` ;.X.X.X.;.;.8.X. .;.` 8.| | | O.7.X.8.6.[ -.[ ;.^ ~ a , w `.tXyXaXaX&XS.7 8 8 6 6 7 8 ",
"c.v.N.G.G.G.I.].cXbX6X*Xi.% f a ` X.X.X.` 6.X.o.X.o.X.8.X.' O.` 7. . .X.;.7.X.-.7.-.-.^ >.=.} p t @ ).xXxXvXcX=XQ.7 8 n 8 8 8 8 ",
"c.b.N.G.N.N.I..XsXxX;X_.Z & p ! X.O.X.X.` 6.X.o.X.o.X.8.X.| O.` <.] =.-.7.9. .-.;.X.-.Q ;.=...z l @ K dXfXxXsX-X'.7 7 6 6 6 7 7 ",
"z.c.N.N.N.N.I.3XxXfX;X`., t p =.X.6.[ X.` 6.X.X.X.X.X.7.X.[ 6.] 9.] -.;.9.7. .X.6.X.X.} ..} ..} t w k 7XvXxXfX-X.X8 8 8 8 q M M ",
"c.b.N.N.J.N.Y.8XvXtX,Xa.@ l y <.X.X.[ 6.[ 6.X.X.X.X.X.7.X.[ 6.[ 0.` $.6.7.7.[ X.8.' X.| X.Q ..;.t f , ).dXaXaX=X1X8 M l.z.m.m.m.",
"v.n.N.N.N.v.Y.6XxXqX,X4.o l a ;.X.-.X.-.] X.X.-.X.X.X.7.X. .;.[ 8.' { o.8.8.[ o.8.' o.' O.` o.7.c k > a.tXvXaX:X.XM z.c.b.b.c.c.",
"N.N.N.v.c.c.Q.6XxX6X*XK * j ) ;.-.-.X.-.] X.X.6.X.X.-.7.-. .7.[ 8.' { { O.8.[ o.6.o.6.[ 6.X.7.9.+.t , ).7XvXqX@X.XM m.M.N.N.N.n.",
"V.N.c.N q N .XT #X/.,XZ * j ! 9.X. . .X.;.-.-.X.]  .-.-.-. .] ` [ ' ' [ [ [ ` ` $.$.$.$.:.$.>.3.A x % i.tXxXqXd.3X0 z.N.B.n.N.N.",
"b.b.c.q 7 Z.'.Y L S i.k f 5.<.w.u.y.r.r.r.r.r.r.r.r.y.y.u.y.y.y.r.q.q.r.u.y.y.f.f.f.f.f.f.s.s.s.3.2.d a.tXtX<XY 8XM l.b.n.n.N.Z.",
"M.b.z.q 7 Z.].qX5X/.d.A #.|.oXoX}.}.u.r.w.>.=.=.=.=.=.>.>.>.>.>.e.1.5.t.t.f.R.|.s.s.s.s.s.p.p.p.2.4.e K `.%X$X^.4XM q l.b.b.N.Z.",
"z.h.0 9 q S.{.xXaX4X%XD t *.( ~ ) / / ! ! / / ! ^ / ^ ( ) ) ) ) z z z v v A A A A Z Z S F F S S d 2.d P _.(.(.@X5Xm 8 q l.c.m.Z.",
"5 q q N z.I.[.rXsXwX,XK w &.@.@.( ( ) @.@.@.@.@.@.@.) ( @.@.@.@.&.&.&.&.&.G A A K K K P i.i.P P Z K r a.*X#X#X#X4XB n 7 q l.x.x.",
"5 q z.c.M.M.1XpXsXwX$XS > A / ) +.+./ / / c j g / / / / / ( +.+.+.@.@.+.+.A A k d e w e e e e e d d > U $X(.D.I 3XB n 6 7 M N B ",
"5 q z.c.Z.Z.{.rXbXaX;XK > t $ O $ $ $ $ - - - - $ $ $ $ - - - - ; ; ; ; ; 3 - $ * & # % # # # # # X X d.(.T T I 4XB n 8 8 9 N x.",
"q 0 c.n.N.K.{.rXsXiX$XD @ t u g j g g u g g g g g g g g u u u u i i i i i j g u j p p g g g j x k w > P K I 5XpX6XB n M 8 7 M x.",
"c.c.c.v.V.J..XrXaXwX;XD , +.:.=.,.5.,.<.3.:.<.<.>.>.=.w.9.>.>.>.w.=.9.>.;.e.>.>.<.>.>.=.<.e.=.5.*.&.w e ~.eXvXeX5XB 7 8 9 M x.m.",
"b.c.c.v.V.L..XeXbXrX;XJ , v =.=.=.,.%.=.:.=.>.$.-.=.] 9.9. .-.X.7.] -.-.X.9.-.-.;.-.-. .;.9. .>.,.l & G 4XtXaXuX5XZ.z.l.N z.m.m.",
"v.v.v.v.J.P.XX>XeX>Xd.Z , v =.=.%.*.) ) ) =.w.$.-.-.] -.7.] X.] 7.` X.X.X.7.X.X.-.] X.] -.;.] ;.=.z * A ,XtXxXiX5XZ.c.z.c.c.v.n.",
"n.n.n.n.J.J. X^.L H S e & +.=.^ O = = ; ; ! 9.=.-.-.X.-.7.` -.X.8.[ 6.X.X.6.X.X.X.] X.X.7.7.] >.) ( w Z _.6XcXaX4XM.z.j.b.n.n.N.",
"n.n.n.n.H.J. X(.+X#Xd.Z & &.^ ; ; y y y y i ] $.-.-.-.X.0.` 6.' 7.' o.X.[ X.' [ X.[ X.X.6.7.[ 7.) z , G `.;XeXpX1XM.c.b.V.H.n.n.",
"j.k.n.n.N.L. X3XbXnXqXK , +.j O =.e.5.e.>.a E ] X.X.-.[ 0.` 6.` 8.' o.o.X.X.' [ [ [ X.X.6.6.[ 7.=.z * d a.#X2X:X1XM.N.V.J.G.c.c.",
"j.j.b.n.V.L..X8XaXfX4XJ , +.! ; ^ =.) <.9.: : -.[ X.6.` 8.Q 7.` 8.' o.O.o.o.[ o.' ' X.X.o.o.' 7.=./ * w J T #X^.1XM.N.H.G.n.c.c.",
"b.c.c.N.J.J.].4XsXfX4XK , +.! ; >.3.^ <.r.: ; ;.X.X.6.` q.` 8.` o.Q X.o.X.o.' o.' ' X.X.6.6.[ 7.=.l < G a.H Y ^.-Xz.b.n.n.n.N.N.",
"c.b.v.n.H.E.~.L rXaXqXJ & c <.y a =.e.@.a : E 6.-.[ 8.X.X.X.X.| o.' [ o.X.X.X.X.[ ` [ o.[ 7.[ 6.=.z - 2._.;X#XC ].z.z.c.h.k.N.N.",
"c.v.N.N.V.E.'.+XY ;X<XZ w +.^ >.: y : ; : i _ 6.X.[ 8.X.6.X.X.X.7.X.X.o.[ [ X.X.X.X.X.6.X.8.[ 9.] z * 2.,XqXiX=XQ.q 0 h.c.n.N.n.",
"N.N.V.V.N.I.{.rXI H ;XJ , +.=.9.a i : : ~ -.-.-.-.[ 8.] -.X. .] 6.[ [ X.[ X.-.X.X.` ] X.` -.` -. ./ * 2.4XyXbXeXQ.5 5 0 h.b.n.c.",
"v.n.N.b.z.S.].bX>XH a.S , +.>.>.=.>.>.>.9.9.;.[ -.[ 0.] -.X.X. .7.X.X.-.X.X.-.-.-. .X.;. .9.] >.=.( * 4.7XyXaXqX Xz.M z.b.n.N.c.",
"b.b.c.z.0 S.'.bXiX&XH 2 d A @.>.=.;.>.=.;.;.-.-.-.] 0.] ;.-.-.-.0.-.-.-.=. .=. . .] ] -.] >.] >.%./ * 4.tXxXsX6X.Xm.m.N.N.N.n.V ",
"b.c.z.l.M S.'.aXxX<XH 2 w v >.;.]  .] ] ;.9.-.-.-.] 9.] -.] ) ^ >.] ] -.=.=.=.=.=.] ] >.] >.) >.%.v & 4.7XfXcX0X].c.c.v.v.v.n.c.",
"z.h.0 q M I.'.aXbX5X~.r 1 *.r.;.;.q.q.q.u.u.9.9.9.9.r.>.w.9.>.>.e.<.9.e.w.<.9.>.9.>.<.e.>.e.=.5.=.&.w 4.*X6XcXeX.XN.v.v.n.n.N.N.",
"z.g.5 5 N I.].cXsXyX%X2 A |.5.}.y.}.R.y.R.u.y.u.u.y.}.}.oXoXoXoXoXoXoX|.}.f.t.5.3.*.*.3.#.*.+.*.*.&.d i./.>XkXeX XJ.N.V.n.b.n.m.",
"z.q 5 7 N Y..XcXcXaX$Xe e *./ ! ) ) ( / / ( ( / / / @.@.%.:.:.,.<.=.%.%.+.A A D D F Z K F P F K Z J e P @X=X0XrX XN.N.V.V.v.c.V ",
"z.0 0 M Z.T.].aXiXrX;XZ w &./ ) +.+.+.( +.@.@.+.+.( +.( +.( +.+.( / ( +.#.A D F F F S P F P F K C K C T #X+X@X+XT.N.N.N.n.v.c.V ",
"j.b.c.c.Z.I..XjXnXrX$XZ 1 2.@.@.( ) @.( @.%.%.@.:.%.@.@.@.( ( ( ) ) %.*.*.A A D F D S F F K F F D J 2 L &X=X=XR W.n.H.J.H.n.c.c.",
"n.H.n.b.V.L..X>XbX0X$XD > x g u j ! ! ! / ^ ^ ! ! z a a a a a a ! s z z c h f d 1 1 1 1 1 1 1 1 > w > S Y Y +X+XT.G.V.V.n.b.c.m.",
"n.J.H.n.J.E.'.L #X+X%XK @ - = ; + + + + ; ; ; + + + + + + + + + O O + + + $ $ $ * $ $ $ * $ $ * # & > i.d.L Y L T.n.n.c.h.h.b.Z.",
"v.N.N.n.L.W.'.#XY I d.Z & t j a W W ! E E W W a ~ ~ ~ ! ! ~ ~ ~ ~ W W ! ! ! / +.c j c c ( j z z &.f % i.,X>X>X+XY.c.c.c.z.c.n.Z.",
"c.c.b.n.P.W..XvX-XT U 2 1 +.5.>.9.9.9.;.;.7.9.;.;.;.;.;.;.-.;.-.9.;.;.;.,.=.>.<.=.=.>.=.<. .-.=.,.v , 2._.6XvXpXQ.M z.c.b.b.c.M.",
"c.j.c.N.L. X{.jXeX$X/.> 1 c ,.] ;.;.-.X.X.-.-.X.-.X.-.X.-.X.X. .;... .X.X.=.>.;.] ] -. .7.` X. .,.( < 2.,XdXnX5X'.8 M M l.z.c.m.",
"x.c.n.B.P.W..XcXaX=X$Xe < c >.] 7.X.6.X.6.8.X.;.X.X.6.;.X.X.-.X. . .7.X.[ -.[ 0.[ ` X.' 7.X.o.| >./ * 2.,XqXvXrX].6 6 8 q q M B ",
"N l.j.n.L.T..XaXxX-X$Xe < z <.] 7.X.6.X.6.8.X.6.X.X.6.6.X.X.X.X.X. .7.;.X.6.X.7.[ ' o.' O.| o.| e.( - 2.`.>XqX5X].7 7 6 7 8 8 n ",
"7 7 0 h.Z.Y..XiXxX;X$Xe < z >.] 6.6.6.X.6.0.X.6.X.X.6.6.[ X.6.X.X.X.8.6.X.6.o.8.[ ' o.' O.| X.| 9.! = 2.)./.>X:XY.N q 8 7 8 b b ",
"6 5 5 q C.Y.{.jXtX=X_.d < ! >.` 6.6.6.X.6.7.X.7.X.X.6.6.[ X.6.[ X.X.0.X.[ o.[ { [ [ o.[ 7.X.X.` <.! * G i.K Y L I.z.l.q 8 8 n b ",
"7 6 7 8 B A.(.xX5X$X_.Z < / ;.` 6.6.6.X.6.7.X.7.-.X.6.6.X.X.6.[ -.-.0.-.[ 6.[ [ [ [ 8.[ 6.] X. .<.( - G a./.:X+XP.c.l.0 8 8 8 b ",
"8 8 8 8 m C.(.5X-X(.*XA < ( ;.X.6.6.7.X.6.7.[ 0.-.X.6.6.X.X.6.X.-.6.w.6.6.6.[ [ [ [ 6.-.6.] -. .,.( < 2.*XqXnXpXI.c.z.z.0 8 8 b ",
"7 7 9 M N x.1X+X#X(.*XG - ! -.X.6.6.7.X.6.7.[ 0.-.X.6.6.X.X.6.X.-.;.w.6.6.0.$.[ [ [ 7.-.>.=.>.=.<.v , 2._.;X0X:XI.z.l.l.q 8 n n ",
"4 7 q z.x.x.Y.D.^./.*XG * z  .X.6.6.7.X.6.7.[ 0.-.X.6.6.X.X.6.X.] -.0.-.$.0.$.[ ] ] 7.-.>.@.>.=.,.c * i._.^.=XOXI.l.q 8 7 8 b b "
};
