/* XPM */
static char *_ec2cece015e4a8bb1e644b3f84046db5rxSBP0Hj9hsREa7[] = {
/* columns rows colors chars-per-pixel */
"64 64 144 2 ",
"   c #5E6F1F",
".  c #567417",
"X  c #5B7416",
"o  c #57751A",
"O  c #5B761B",
"+  c #57791B",
"@  c #5D781D",
"#  c #627A16",
"$  c #61761B",
"%  c #627B1D",
"&  c #697E1E",
"*  c #5C7622",
"=  c #5E7921",
"-  c #617523",
";  c #647D22",
":  c #697E22",
">  c #677F29",
",  c #687E29",
"<  c #707F24",
"1  c #66801F",
"2  c #6D821E",
"3  c #72841E",
"4  c #75881F",
"5  c #678124",
"6  c #6C8324",
"7  c #6E8827",
"8  c #668328",
"9  c #6D8429",
"0  c #6E8928",
"q  c #778725",
"w  c #768624",
"e  c #758626",
"r  c #758624",
"t  c #738523",
"y  c #788722",
"u  c #788724",
"i  c #738821",
"p  c #778820",
"a  c #768822",
"s  c #778822",
"d  c #728824",
"f  c #738925",
"g  c #748924",
"h  c #768825",
"j  c #758926",
"k  c #748827",
"l  c #778926",
"z  c #758924",
"x  c #788921",
"c  c #788923",
"v  c #798A22",
"b  c #7B8A23",
"n  c #7A8B23",
"m  c #7C8B22",
"M  c #7F8A22",
"N  c #7F8C23",
"B  c #788825",
"V  c #7A8924",
"C  c #798A24",
"Z  c #798B25",
"A  c #7A8B25",
"S  c #798926",
"D  c #798927",
"F  c #7A8826",
"G  c #788A26",
"H  c #788A27",
"J  c #798B27",
"K  c #7A8A27",
"L  c #7C8B24",
"P  c #7B8C24",
"I  c #7A8C26",
"U  c #7B8C26",
"Y  c #7B8D27",
"T  c #7D8C25",
"R  c #7C8D25",
"E  c #7E8D24",
"W  c #7D8E24",
"Q  c #7F8E25",
"!  c #7E8F25",
"~  c #7D8C27",
"^  c #7C8D27",
"/  c #7E8D26",
"(  c #7D8E26",
")  c #7C8F26",
"_  c #7F8E27",
"`  c #7E8F27",
"'  c #7C8C26",
"]  c #708329",
"[  c #708528",
"{  c #70852A",
"}  c #72872A",
"|  c #72862A",
" . c #78872C",
".. c #758928",
"X. c #738A2F",
"o. c #748A29",
"O. c #788929",
"+. c #798B28",
"@. c #7B8B28",
"#. c #7D8B29",
"$. c #7A8C28",
"%. c #798D2A",
"&. c #7C8C29",
"*. c #7E8D28",
"=. c #7D8E28",
"-. c #7D8F29",
";. c #7F8E29",
":. c #7E8F29",
">. c #7C8C2A",
",. c #7D8D2A",
"<. c #7C8E2A",
"1. c #7D8F2B",
"2. c #7E8E2B",
"3. c #7D8F2C",
"4. c #7E8E2C",
"5. c #7F8F2C",
"6. c #7F8F2D",
"7. c #7D8D29",
"8. c #7F9026",
"9. c #7E9026",
"0. c #7F9028",
"q. c #7F902A",
"w. c #7C902D",
"e. c #7E902C",
"r. c #7F9029",
"t. c #748630",
"y. c #7D8D32",
"u. c #828D25",
"i. c #808F26",
"p. c #818D26",
"a. c #818D29",
"s. c #808F28",
"d. c #828E28",
"f. c #808F2A",
"g. c #828E2A",
"h. c #808E29",
"j. c #809026",
"k. c #819029",
"l. c #809129",
"z. c #81902B",
"x. c #80912B",
"c. c #81922A",
"v. c #81942B",
"b. c #81912B",
/* pixels */
"o O O = ; ; ; 9 6 e r r h S S / 0./ R 2.v./ / / 2.2.g.2./ S t t S 2.2.2.r 3 t 3.2.2./ / / / 2.0.2.0.v.c t e 5 5 5 ; * O @ - - - ",
"o O + + @ @ % 5 e ..$.3.2./ / 2./ 2.2.2./ / g.v.2.2.p./ / S t t S 2.2.2.S r t S 2./ / / / / / 2.0.0.g.p 3 t & ; % @ @ @ O @ - - ",
". o o X X X # & t h $.2.2./ 2./ 2.v.g./ / g.g./ / / g./ / / 3 t / 0.0.2.2.2.t t / / / / / / / 9.0.9.0.c t 6 % O X o o O o o @ * ",
". o o O @ % % 2 2 t t t t y L g.v.g./ / / v.p.m / / / / 9./ 4 3 / 0./ 2.v.2.p 4 / / / / / / / 9.9.9.v.R r 6 $ X + + @ @ + @ = * ",
"o O O @ ; 5 6 6 3 t t 3 3 3 S g.2./ / / g./ / g./ / / W 9./ 4 3 / / / 0.v.c p c / / / / / / 9.0./ / 0.@.h { ; % + O o o O @ * * ",
"@ @ @ @ : { e r S / 2.S t t S 0.2.2.v.0.S 4 c v./ / p./ 0./ t t R / / 0./ p p 0./ / / / p.p./ / g.2.3.@.h { 9 9 % @ O O % % - - ",
"O @ O $ : e h S 2.v.v./ t t S w.2.2.2.S 4 3 c 2.2.2.g./ / 2.t t S 2.0./ R p c v.2./ / g./ / / 2.2.#.3.@.e 6 5 9 6 6 6 6 6 6 ] 9 ",
"O @ O O & t S / g.g.2.S t 3 h w.2.R t 3 t S 2.2.2.2.v./ 2.2.t t p 0.v./ c c R v.2.2./ / / / 2.2.S S 2.r 6 & O % t f e t 3 3 t t ",
"# # O O & h / / / g.2.S e 6 e 6 5 6 t 2 d R 2.2.S / / / v.S 3 t t 2.3.S c / / R 2.g.p.m W / R d 6 6 { X.6 % O X ; 6 f t p S h e ",
"2 % $ O & d 9.j.j./ S t & % ; 6 } 6 6 t f h h t t / / / 0.S t t t 2.3.S S / / / 2.g.g.p.p./ h t & % : 9 ; % O o % 6 h S R 2.$.@.",
"3 2 : : t h / 9.v./ t 2 $ X O 5 6 ; & 5 e t t t t / / / 2.S t t t b.2.p R / / / / / / v.g.S t 2 O O O % @ @ O O % 6 $./ / g.2.2.",
"4 t t t r S R R b./ h 6 % X o @ % O O % 5 e r t S 2.0.2./ t 3 t S b./ t 2.v.R / p t c 2.3.S t 6 @ o o o O O O O % e $.2./ / 2.2.",
"m S t < 3 p / 0.0.2.S 6 & ; @ @ @ @ @ @ ; 6 r t R / 2.0.S 3 3 p R b.S 3 2.b./ 2.t 3 t @.3.S r e 5 ; @ o o O O O % 6 $.$.2./ / 2.",
"W / F r y L / 0.0.0.$.t 6 5 ; @ @ % @ O @ 6 e t / R 2.2.S t c / 2.b.S 4 / b.0.0.h t t S 2.$.h r 9 6 ; o o @ o o $ 6 { ..S S @.3.",
"W / 2.g.g.g./ 2.g.g./ p d e 6 ; @ @ @ O @ ; t t R 2.0.@.r S 0.v.2.v.S 4 p / / 2.@.t t r 2.2.S t e e ; O o @ o o O ; 5 6 6 e O. .",
"W / 2.#.L p.p.2.g.2.2.2.R d 6 6 @ @ @ @ @ % & t m 2.2.t 3 R v.0.0.v.R 4 3 t S R 2.r t r 2.b.R 4 t e & X o @ o O X @ % % & : 6 O.",
"S / 2./ p.g.f.3.v.2.2.2.R R @.e ; o @ + = @ : t r ..r 2 t 2.v./ / 9./ S 4 3 3 3 t r r r S 3.g.S 6 6 ; o O @ O = O O O o o @ ; 9 ",
"t S 2.2.p.g.g.g.v.g.f.v.0.0.$.r 5 O @ @ = @ 6 t t r e 3 t 2.b./ 9.9./ / c t t t r @.S t t 2.2.t h { 5 @ @ @ O O O O @ @ o X O @ ",
"t S 2.g.g.g.g.g.p.2.2.0.0.0.$.e 6 o + @ O o 6 t t t t 3 t 2.v./ 0.0.0.2./ R @.@.2.f.2.t t @.@.t e e 6 ; O @ @ O O O @ = @ @ @ @ ",
"t h 2.2.2.2./ / / / 2.0.9.v.2.r 5 . o @ o O 6 t t h t t S 0.v./ v.g.g.0.0.0.2.2./ 0.R h t 6 t e t 6 9 ; @ o @ o @ O O o X X O O ",
"6 r $.2.2.2.S 4 t t h S / 0.$.e ; . . @ O % 6 p / / 2.2.2.v.b.g.g.g.g.g.v.v.0.0./ R R h 6 % % 5 e e } 6 @ o @ + @ @ @ @ @ % ; ; ",
"t h 2.3.b.2.t 2 t 6 6 t d h t & @ o . @ @ ; t c 9.9.2.2.2.g.g./ g.g.g.g.0.0.0./ / / R ..2 X X % ; 6 9 ; o o @ @ o @ ; 5 6 { } } ",
"S @.2.2.2.S t 2 f 6 6 6 6 t 6 % o @ . o % 6 t c / / / 2.2.2.2.2.p.p.g.g.g./ / / g.0.w.$.6 O o @ o % = @ O O @ @ O ; 6 f f h r t ",
"/ 2.2.S t t 6 6 5 ; ; ; & 2 ; O o = o @ ; { t W / W / 2.2.2.2.g.p.p.g.g./ / / 0.2.v.w...6 % @ O o @ @ o @ @ o @ O ; } %.$.2.$.@.",
"0.$.e : % ; ; ; ; = @ @ * @ O O O @ @ ; 5 6 t / / / / / g./ / L g.g./ / j.v./ 4 h h h 6 6 ; % @ o @ @ @ O O O @ O & 6 $.9./ 2.>.",
"h h e % O O O O o o O O O @ @ @ o o O ; 6 e r $./ / / / / / / p.g.v.g./ / v.v.2.t t e 6 9 ; = @ O O O O O O O O O % 5 f R R >.y.",
"%.h 6 % O @ $ O O O O O * O O O o o o % 6 6 6 e F S / 2./ / / p./ v.0./ m / 2.2.h t e 6 9 % O @ @ @ @ @ @ @ @ @ O O % 5 f h  .y.",
"6 2 % $ $ ; ; O @ @ @ @ O O O O @ @ O @ ; % % : t r #.2./ / / / / 0.9./ c p t r S t 6 & ; o O @ @ O O O O O O @ O @ @ % 5 e { t.",
"X % % : 6 6 ; % O O o o o O @ @ @ @ @ @ @ o O ; t S 2.2.2./ / 9./ 0.0./ c p t t t t 5 O @ O @ @ @ @ O @ O o @ = O * * O % 6 9 9 ",
". % 6 e e e 6 6 ; % % @ @ @ o O O @ = @ @ o % 6 h 2.f.2.2.g.v.0.v.v.g./ / / S h t t 5 O @ O @ O @ @ @ @ @ o O @ O = = o O ; : , ",
"X % 6 e e t e e { 6 5 5 ; ; @ o O * = @ @ O % 6 t S 2.2.2.f.0.2.2.2.2.g.g.g.2.2.S h 6 @ @ o @ @ @ o o % ; @ o X O * * @ @ $ ; 9 ",
"% & t @.2.>.O.e { e 6 6 6 6 % o @ * * @ @ o O & 2 t 2.2.2.2.$.h t F L g.g.2.2.0.2.h 6 @ @ o = ; ; % % 5 9 6 ; @ O O * ; @ O ; 9 ",
"e t t S 2.9.m / p 2.2.$.t 2 5 @ @ O - % O o % ; 6 6 e e e t t h t t h 3.w.$.h H 6 6 ; @ o @ 6 9 9 6 6 6 } 0 9 6 ; @ O @ $ ; 9 ] ",
"h t t c 2.9./ / 0.w.3.2.S t 6 & O ; @ O ; 5 5 5 2 2 5 6 { e & % 6 6 e r r t t t & % O o X % 6 { 6 6 6 6 6 5 5 { 9 6 6 5 : 6 O. .",
"S S c S / / 9.9.0.2.2.b.2.h e : X ; O o 9 9 ; ; @ X o O % % O X X ; { { 6 6 6 6 % % % @ % 6 { 6 5 5 e } 5 @ % : 6 f t t t r S @.",
"/ / / / / / / / p t h b.b.h e : @ o o ; 9 ; X O + o o o X X O % X % 6 9 6 ; 5 6 5 5 6 6 9 } 6 % X % e 9 % o O @ & 6 t 3 p R R 2.",
"c R / / / / / / t 3 t 3.3.t t : @ X % 8 ; o X o o o = ; @ O O @ @ @ ; ; @ o % 6 5 5 6 9 9 9 5 X X % 6 6 @ o @ O & 6 t p 0.v.@.@.",
"3 t c / / / / / 2.r t 2./ t t 6 % % 6 6 $ $ 5 % % @ O @ @ @ @ @ @ o o @ O X O 6 & % @ % % ; % X X % ; % o o % % 6 e %.3.v.f.r t ",
"3 3 t R 2./ / / b.S t @./ c S t t t r t & 6 e 5 9 ; O O @ ; ; 6 @ o o @ % % & 6 ; O X o o o @ o O % $ @ @ o @ : 9 6 %.v.g./ r t ",
"t t t $.0.2./ 0.2.F t 2.v./ / S F F F r r t 6 e 9 ; O X @ ; 6 9 5 % o o @ % ; 5 : % @ @ + o + O @ @ @ @ ; o O 6 9 6 h / c c 2.$.",
"r h S / / 0./ c S 4 3 t 2.0.2.2.2.2.#.2.b.2.t 6 6 % O O @ ; 9 9 6 ; @ @ o o ; ; 6 6 ; X o @ @ O @ @ @ o O O @ % 6 6 6 t 2 4 2.3.",
"r S / 2.2.S t 3 S t t r @.2.2.2./ 2.#.2.b.$.e e 6 % O O O ; 9 9 6 @ o o @ @ @ @ O % 5 ; @ o O = o o o O % @ O O X % % 2 t c 2.@.",
"2.3.b.w.H t 6 6 6 6 6 e h @.@.2.#.2.2.3.3.@.t e 6 : ; % % 5 9 } 5 @ o + @ @ @ o @ @ ; 8 % X o @ @ % @ @ @ @ O @ X X X % 2 p @.t ",
"S @.$.h 2 % % % $ $ % : 6 h S @.@.2.2.$.$.e 6 e { { { 6 6 e ....; @ @ @ O O O O * O ; 8 @ o @ O 6 9 5 @ o X @ 5 9 6 ; 6 p R 2.t ",
"h h e 6 % X X @ X X O O & 5 e e e e e 6 6 6 : 6 6 : 5 6 6 h ..h ; $ @ @ O O O O . O 6 8 @ O % O 9 } 9 ; O @ ; 6 9 } { %.2.2.@.< ",
"d t 6 5 % O O % ; % O X O % ; ; 5 ; & % % $ X O O O O $ % e H S : $ X @ ; ; 5 ; % ; 5 ; o O % O 6 9 9 6 6 6 6 6 6 e e S S S @.t ",
"6 2 & % $ X % 6 e 6 & O X o @ @ % @ @ @ % @ O O O X O O % 6 h p 6 % $ & 6 e e t e 6 5 % O O @ X ; 6 e e e h h h S $.S S c c 3. .",
"6 1 X X X % t $.t 6 5 % X o o + O O O = 8 8 : ; ; % ; ; & e h p t 2 2 t 3 2 3 3 2 t e & % O O @ & e ..e t r #.b.0.b.3.0.c p @.O.",
"6 % X O % t 3.f.S h e 5 % O o o @ O = 8 6 9 9 : 6 6 6 t r r 2.c t & p 2.t p / c R S h t 6 & % $ 2 t h $.2.2.2./ 0.2.2.0.0.S t < ",
"6 & & ; 6 ..2.2.3.S t 6 5 5 ; % O X O @ @ ; 5 : % 5 e ..3.2.2.c 3 3 p R S R 0.2.2.2.2.$.h e 6 6 t t S $.3.0.2.2.0.2.2.2./ S r < ",
"3 d t t ..$.2./ 2.2.$.h t 6 6 6 % O o X X $ 6 6 % : e e h 2.2.0.3 t p S R 2.v.v.v.v.v.0.2.2.$.$.R R R 2.v.0.0.0./ / v.b.v.R e t ",
"c 0.R h S 2./ j./ 0.0.R h h h e 6 ; & % % ; 9 } % & 6 % & h p v.S / S t R 0.2.0./ g.g.0.0.0.0.0.b./ / 0./ 2.2.w./ g.2.0.R p t O.",
"/ v.v.m / 0.9.9./ 0.2./ 2.2.S 3 e 6 6 6 6 6 9 9 % ; 5 X % t 3 / / 2.p 3 R 0.2.2./ / / / / / / / v.0./ / m p h S #.@.@.t 2 2 h y.",
"S 2.2.R 9.9.R c R 0.v.2.2.g.R 4 t d t t e 6 ; ; O ; % X & t t / / / t 3 S 2.2.b./ / / / / / / / / p.W c 4 t 6 6 t t e e 6 t @.y.",
"t t h R 2.2.S 3 t $.b.#.#.2.L t t R S c h 6 $ @ % 6 @ X 2 h S g./ / S c S S / v.0.0./ / / / / g./ g./ p t t 6 $ $ ; 6 6 f d r  .",
"r 3 t 2.0.w.@.t t h S t S f.L 3 R v.v./ S & $ @ % 9 % % f $.2.a.2.2.2.2.S t c 2.2.2.2.2.2.2.g.g.p.v./ p t h 6 $ - @ ; ; 5 6 t | ",
"9 e c 9.9.$.{ 9 e 5 5 5 6 t p p 0.2./ / m 3 % @ 5 5 @ @ 7 %.S S @.2.2.2.f.2.S t c 2.b.v.2.2.2.p.p.p./ R p t 2 & @ o o @ % % ; > ",
"; 5 3 m $...{ 6 & % % % % 6 h w.2.2.2./ R d : - o @ + + % & 2 r ..S r t r S 2.$.y c S 2.v.v./ p.p./ / / S h t 2 % O o o O @ @ * ",
"O O % 2 6 6 ; % @ O O o X % f w.2.0.0.2.R h 6 * o @ @ o o X % : e e t 3 3 c / 2.S t 4 S 0.0./ p.p./ 2.2.2.$.r t 6 ; ; @ O @ * * ",
"o X X @ ; * @ @ @ @ @ @ X % 6 %./ 0.3.$.h 6 ; * @ @ O o o O @ % 5 6 f e t S S c f.S 3 t m / / u./ / / 2.0.2.@.t t 6 5 % @ @ = * ",
"O o O @ * * @ @ @ O = @ O % 5 f / 2.3.2.d % O O @ O O @ @ @ @ O @ 5 } $.2./ y 3 2.S t 4 c / j.p.j./ / / 0.0.R p 2 t 5 & O + @ * ",
"@ @ @ @ * @ @ @ @ O O o o % 6 t g.2.2.2.d # X $ % % ; ; % O O O o & e ..2.2.S t t t t 4 c / v.p.j.j./ / g.0./ S 2 t 6 6 % @ @ O ",
"O O $ ; ; ; @ o = @ @ o O & 6 r / 2.2.2.p 2 & : 6 6 { { : & & % @ ; 6 r S 2.2.S t t t t S 2.2.g./ g./ 2.2.f.2.2.t 6 5 5 % % * * ",
"  O % 6 9 9 ; @ @ @ @ @ % 5 %.$.2.2.2.2.R p e 6 { e ....e 6 { 6 ; 6 6 t r #.2./ 2.S r @.2.2.2.f.2.f.2.2.2.3.f.3.f 6 % @ O @ * * "
};
