/* XPM */
static char *_e2022836a964a8bcbdcdbcc5c65beb7jSPlOB1q02cJOoyr[] = {
/* columns rows colors chars-per-pixel */
"32 32 136 2 ",
"   c #547316",
".  c #5B7416",
"X  c #56741B",
"o  c #5C761B",
"O  c #5D791D",
"+  c #617616",
"@  c #647917",
"#  c #6C7D17",
"$  c #61771C",
"%  c #637B1D",
"&  c #697D1D",
"*  c #5C7622",
"=  c #5D7A21",
"-  c #617422",
";  c #647D22",
":  c #6A7F21",
">  c #66801D",
",  c #6C811E",
"<  c #72841E",
"1  c #79851F",
"2  c #668124",
"3  c #6C8223",
"4  c #67832A",
"5  c #6D8529",
"6  c #6F882C",
"7  c #738523",
"8  c #788622",
"9  c #758925",
"0  c #798A23",
"q  c #798C23",
"w  c #788825",
"e  c #7A8924",
"r  c #788A24",
"t  c #798A24",
"y  c #798B25",
"u  c #7A8B25",
"i  c #798926",
"p  c #7A8826",
"a  c #788A26",
"s  c #788A27",
"d  c #798B27",
"f  c #7A8A27",
"g  c #7C8B24",
"h  c #7B8C24",
"j  c #7A8C26",
"k  c #7B8C26",
"l  c #7B8D27",
"z  c #7C8D25",
"x  c #7D8C27",
"c  c #7C8D27",
"v  c #7E8D26",
"b  c #7D8E26",
"n  c #7F8E27",
"m  c #7E8F27",
"M  c #7B8B25",
"N  c #718428",
"B  c #738728",
"V  c #73862A",
"C  c #73862C",
"Z  c #738729",
"A  c #738829",
"S  c #748A28",
"D  c #758B29",
"F  c #778B28",
"G  c #778D28",
"H  c #778D29",
"J  c #768C2A",
"K  c #748929",
"L  c #7B8928",
"P  c #7A8A28",
"I  c #7B8B28",
"U  c #7B8B29",
"Y  c #7A8B2B",
"T  c #7D8B29",
"R  c #7D8B2A",
"E  c #7A8C28",
"W  c #7A8C29",
"Q  c #7E8D28",
"!  c #7C8E28",
"~  c #7D8E28",
"^  c #7F8E29",
"/  c #7E8F29",
"(  c #7C8C2A",
")  c #7D8D2A",
"_  c #7D8D2B",
"`  c #7E8C2A",
"'  c #7D8F2B",
"]  c #7E8E2B",
"[  c #798D2C",
"{  c #788C2D",
"}  c #7A8E2F",
"|  c #7C8D2D",
" . c #7F8D2C",
".. c #7E8E2C",
"X. c #7F8F2C",
"o. c #7C8D2A",
"O. c #7B9125",
"+. c #7D9027",
"@. c #7E9024",
"#. c #7B902B",
"$. c #7C9128",
"%. c #7F9028",
"&. c #7F9229",
"*. c #7E902A",
"=. c #7F902A",
"-. c #7E902C",
";. c #7F902A",
":. c #7D8E30",
">. c #7A8F30",
",. c #808C26",
"<. c #818C26",
"1. c #818D27",
"2. c #808C28",
"3. c #818D29",
"4. c #808F28",
"5. c #828E28",
"6. c #838F29",
"7. c #818D2B",
"8. c #808F2A",
"9. c #828E2A",
"0. c #838F2B",
"q. c #808E2C",
"w. c #808E2A",
"e. c #809023",
"r. c #849024",
"t. c #819029",
"y. c #809129",
"u. c #80912B",
"i. c #81922A",
"p. c #82932B",
"a. c #81922C",
"s. c #81932D",
"d. c #83922D",
"f. c #82932D",
"g. c #83942E",
"h. c #81912B",
/* pixels */
"o O O : B y z e k g.z z i.z g < ' ' 7 r *.k k i.O.H 3 : $ $ ; - ",
"  X $ : 7 y k z ' i.k z z z z 7 k a.y 7 z *.*.z e.h 3 $ . . X * ",
"O O 3 3 7 y 7 Y a.z e z z z ' 7 y a.z e z i.i.k r.z B : ; O O ; ",
"O . 3 y +.' 7 } #.r y z z z *.< k z e z *.z i.z y ' B : 3 3 3 5 ",
": . < z i.y & 5 7 3 w k y i.' , k e k i.z z ' r & 3 ; . 3 F y y ",
"B & 7 8.8.7 . o : % 3 r y *.y < k k ' ' e y *.< O ; X . 3 ' i.<.",
"w 7 e 8.q.w : % O o : B Y ' r y ' y k ' 7 y  .7 % $ O O 3 D E Y ",
"z 8.8.8. .Y A 3 = X $ B ' T 8 i.a.7 7  .7 7  .Y 7 % X X o % 5 C ",
"w -.' 8.8.*.*.9 O o o , w 7 < a.' ' 7 < y y y ' B & o O O X O ; ",
"7 ' ' z ' *.*.r O X O 3 w 8 e a.' a.i.z k w 7 7 B 3 O O o X X o ",
"8 8.*.y 7 7 E 7 O X % B Y 8.' +.8.i.i.*.-.D 3 + 3 : O X O : : & ",
"T ' 7 3 3 % 5 : o O 3 H ' 8.8.h 8.<.z z ' H 3 . O O O X % 5 { Y ",
":.B o O = O O . o O 3 D Y 8.8.k 8.8.i.z w B 3 ; X O X X O 5 }  .",
"5 % o o O X X X O O % , 7 g i.*.8.z g e 7 3 ; * X O O X o : 3 B ",
"+ : 5 3 $ X O O * O O % 7 ' 8.*.' ' e < 7 & X X o O O O O o ; 5 ",
"@ B D K B 3 2 X * * X & Y q.' ' y a.i.' k % X * $ O ; ; O . O : ",
"< e ' i.E E } % X O % % 3 B 3 7 3 w D S , . o 5 3 A 5 3 3 $ % B ",
"k z ' *.y E E 3 . ; ; O o O o . & 3 : 3 3 % 3 3 > 3 % $ : 5 Y  .",
"e y z z y e y < & : : O O O O O X $ o % : $ 3 O O % . . 5 ' ' 8 ",
"< e ' *.k y z 7 7 7 3 3 : o O 4 ; O o 2 ; X O X X ; O $ B E ' < ",
"w -.' y 7 y a.' 8.' ' D : . O 6 2 X O ; $ $ X o X * O O $ , y ' ",
"' E 3 & @ & w Y q. .Y B 3 & 3 D ; . O . o 2 O O ; * X o $ % B Y ",
"w 3 + o $ o $ : 3 3 % $ % : 3 w $ O $ o $ 2 o o C 3 : 3 S D Y 7 ",
", & . 2 5 ; o o O ; ; ; o . & } : 3 5 A 5 % X O , 7 B E E y T 8 ",
"3 $ 3 ' E 3 $ % X * ; B : D } Y 7 7 e k k y < & 7 Y ' z i.a.' 7 ",
"w B E *.' y 7 3 O o & 5 3 3 w 8.8 y ' a.a.*.' ' ' ' *.' *.' E 7 ",
"z z z g ' a.' y r 7 3 : : + # g y y g z z z z i.*.z y w 7 B D E ",
"7 k *.y 7 Y y y e z A $ ; % 7 z a.Y e g z <.z ' +.h 7 & & ; 5 A ",
"& S >.B & & , D h a.D X = ; 3 w E y e g <.z 8.i.+.z r & $ o $ $ ",
"o ; ; ; O o $ S i.a.B o X X X $ , 7 y y 8 1 g i.z i.' B : ; $ X ",
"X o X X O O $ 7 ' E 3 & $ ; o o % B  .T 7 7 g i.g z *.E B 3 $ O ",
". ; 4 = O . . w ' i.7 7 3 A 3 : $ B } y 7 e ' *.8.8.z ' S % O O "
};
