/* XPM */
static char *d1e7617dc2124003e766b1e90c141224DwPQH6MDhDCHn8rz[] = {
/* columns rows colors chars-per-pixel */
"64 64 185 2 ",
"   c #0F0D0A",
".  c #150A07",
"X  c #1A0D06",
"o  c #140D0B",
"O  c #1B0E0A",
"+  c #1C1007",
"@  c #15100E",
"#  c #1D110C",
"$  c #1D1C0D",
"%  c #151114",
"&  c #1B1311",
"*  c #1D1719",
"=  c #1F1A1D",
"-  c #210F09",
";  c #24130D",
":  c #2A150D",
">  c #241E09",
",  c #2F180F",
"<  c #311C0F",
"1  c #241612",
"2  c #291712",
"3  c #251A14",
"4  c #2C1B14",
"5  c #201718",
"6  c #221A1A",
"7  c #291E1A",
"8  c #341B13",
"9  c #3B1E14",
"0  c #26220E",
"q  c #2A250B",
"w  c #2E2B0C",
"e  c #30250E",
"r  c #312B0D",
"t  c #2E300D",
"y  c #31310F",
"u  c #242011",
"i  c #2A2514",
"p  c #272912",
"a  c #2C2B13",
"s  c #2C201D",
"d  c #372612",
"f  c #3D2116",
"g  c #332C12",
"h  c #3A2E15",
"j  c #35221A",
"k  c #38231B",
"l  c #2D3212",
"z  c #343412",
"x  c #3C3313",
"c  c #343A16",
"v  c #3C3B15",
"b  c #373C1C",
"n  c #3A3E18",
"m  c #19242F",
"M  c #1B2531",
"N  c #1D2835",
"B  c #1F2C3A",
"V  c #252125",
"C  c #2D2221",
"Z  c #332423",
"A  c #362926",
"S  c #382927",
"D  c #332928",
"F  c #392A28",
"G  c #252B35",
"H  c #2F3B35",
"J  c #353034",
"K  c #3B3336",
"L  c #3B3539",
"P  c #422217",
"I  c #442519",
"U  c #49271B",
"Y  c #47281B",
"T  c #4C291C",
"R  c #532D1F",
"E  c #413C17",
"W  c #433818",
"Q  c #532E21",
"!  c #582F21",
"~  c #573022",
"^  c #5A3223",
"/  c #3D4219",
"(  c #374328",
")  c #3A462A",
"_  c #364239",
"`  c #414316",
"'  c #474A17",
"]  c #44461B",
"[  c #4B431A",
"{  c #494D1A",
"}  c #53481E",
"|  c #48521B",
" . c #525D18",
".. c #4F631A",
"X. c #516716",
"o. c #57601F",
"O. c #5A661F",
"+. c #566D1A",
"@. c #5B6E1D",
"#. c #567317",
"$. c #5B7416",
"%. c #56751A",
"&. c #5B761B",
"*. c #57791B",
"=. c #5D781D",
"-. c #627A16",
";. c #61761C",
":. c #627B1D",
">. c #6A7E1E",
",. c #424723",
"<. c #495527",
"1. c #4A5629",
"2. c #565C22",
"3. c #425237",
"4. c #566227",
"5. c #5B6626",
"6. c #5E6C25",
"7. c #5D7622",
"8. c #5D7921",
"9. c #626F22",
"0. c #627523",
"q. c #647D22",
"w. c #6A7E22",
"e. c #677F29",
"r. c #6B7D29",
"t. c #707F23",
"y. c #263647",
"u. c #283746",
"i. c #2B3847",
"p. c #273748",
"a. c #283749",
"s. c #2C3C4D",
"d. c #2E3F51",
"f. c #364549",
"g. c #2F4050",
"h. c #314253",
"j. c #394655",
"k. c #344759",
"l. c #394758",
"z. c #374A5C",
"x. c #394B5E",
"c. c #3A4E61",
"v. c #3E5366",
"b. c #3F5469",
"n. c #405266",
"m. c #41566B",
"M. c #43586C",
"N. c #66801F",
"B. c #6D821E",
"V. c #72841E",
"C. c #75881F",
"Z. c #678123",
"A. c #6C8323",
"S. c #668328",
"D. c #6D8429",
"F. c #6E8928",
"G. c #738523",
"H. c #788724",
"J. c #758924",
"K. c #798A23",
"L. c #798926",
"P. c #7B8C24",
"I. c #7D8E24",
"U. c #7C8C26",
"Y. c #7E8D26",
"T. c #72852A",
"R. c #71862A",
"E. c #78872C",
"W. c #748A29",
"Q. c #798A28",
"!. c #798D29",
"~. c #7E8D28",
"^. c #7C8D2A",
"/. c #7E8E2B",
"(. c #7E8F2C",
"). c #7E9026",
"_. c #7F9028",
"`. c #7F902A",
"'. c #748630",
"]. c #7D8D32",
"[. c #818D26",
"{. c #808E2A",
"}. c #809026",
"|. c #81922A",
" X c #81912C",
/* pixels */
"%.&.&.8.q.q.q.D.A.G.G.G.J.L.L.Y._.Y.Y./.|.Y.Y.Y././.{./.Y.L.G.G.L./././.G.V.G.(././.Y.Y.Y.Y./._./._.|.K.G.G.Z.Z.Z.q.7.&.=.0.0.0.",
"%.&.*.*.=.=.:.Z.G.W.!.(./.Y.Y./.Y./././.Y.Y.{.|././.{.Y.Y.L.G.G.L./././.L.G.G.L./.Y.Y.Y.Y.Y.Y./._._.{.K.V.G.>.q.:.=.=.=.&.=.0.0.",
"#.%.%.$.$.$.-.>.G.J.!././.Y./.Y./.|.{.Y.Y.{.{.Y.Y.Y.{.Y.Y.Y.V.G.Y._._./././.G.G.Y.Y.Y.Y.Y.Y.Y.)._.)._.K.G.A.:.&.$.%.%.&.%.%.=.7.",
"#.%.%.&.=.:.:.B.B.G.G.G.G.H.P.{.|.{.Y.Y.Y.|.[.P.Y.Y.Y.Y.).Y.C.V.Y._.Y./.|./.K.C.Y.Y.Y.Y.Y.Y.Y.).).).|.Y.G.A.;.$.*.*.=.=.*.=.8.7.",
"%.&.&.=.q.Z.A.A.V.G.G.V.V.V.L.{./.Y.Y.Y.{.Y.Y.{.Y.Y.Y.Y.).Y.C.V.Y.Y.Y._.|.K.K.K.Y.Y.Y.Y.Y.Y.)._.Y.Y._.Q.J.R.q.:.*.&.%.%.&.=.7.7.",
"=.=.=.=.w.R.G.G.L.Y./.L.G.G.L._././.|._.L.C.K.|.Y.Y.{.Y.).Y.G.G.Y.Y.Y._.Y.K.K._.Y.Y.Y.Y.[.[.Y.Y.{./.(.Q.J.R.D.D.:.=.&.&.:.:.0.0.",
"&.=.&.;.w.G.J.L./.|.|.Y.G.G.L._./.(./.L.C.V.K./././.{.Y.Y.G.$ 3 $ u i w.Y.K.K.|./.Y.Y.{.Y.Y.Y./././.(.Q.G.A.Z.D.A.A.A.A.A.A.R.D.",
"&.=.&.&.>.G.L.Y.{.{./.L.G.G.J._./.Y.G.V.G.L././././.|.9.p a @ & @ & & i g { Y.|././.Y.Y.Y.Y././.L.L./.G.A.>.&.:.G.J.G.G.V.V.G.G.",
"-.-.&.&.>.J.Y.Y.Y.{./.L.G.A.G.A.Z.A.G.B.J.Y././.L.Y.@./ o & & & & & O # & a O.Y./.{.[.P.Y.Y.Y.J.A.A.R.W.A.:.&.$.q.A.J.G.K.L.J.G.",
"B.:.;.&.>.J.).}.}.Y.L.G.>.:.q.A.R.A.A.G.J.J.J.G.G.Y.c @ & & & & 1 1 # 1 1 # p /./.{.{.[.[.Y.J.G.>.:.w.D.q.:.&.%.:.A.J.L.Y./.!.Q.",
"V.B.w.w.G.J.Y.).|.Y.G.B.;.$.&.Z.A.q.>.Z.G.G.G.G.G.Y.c     & # k Q ^ ^ ^ ^ I a /.Y.Y.Y.|.{.L.G.B.&.&.&.:.=.=.&.&.:.A.!.Y.Y.{././.",
"C.G.G.G.G.L.Y.Y.|.Y.J.A.:.$.%.=.:.&.&.:.Z.G.G.G.L./.c     o f ~ Q T ^ ^ R f g Y.K.G.K./.(.L.G.A.=.%.%.%.&.&.&.&.:.G.!./.Y.Y././.",
"P.L.G.t.V.K.Y._._./.L.A.>.q.=.=.=.=.=.=.q.A.G.G.Y.Y.c o o o f T 9 4 T ^ 9 ; g /.G.V.G.Q.(.L.G.G.Z.q.=.%.%.&.&.&.:.A.!.!./.Y.Y./.",
"Y.Y.H.G.H.P.Y._._._.!.G.A.Z.q.=.=.:.=.&.=.A.G.G.Y.Y.v ; f o f Q P 1 I ^ 2 O h _.J.G.G.L./.!.J.G.D.A.q.%.%.=.%.&.;.A.R.W.L.L.Q.(.",
"Y.Y./.{.{.{.Y./.{.{.Y.K.J.G.A.q.=.=.=.&.=.q.G.G.Y./.E < U : f ^ Q 4 Y ^ 2 # W /.L.G.G.G././.L.G.G.G.q.&.%.=.%.%.&.q.Z.A.A.G.R.E.",
"Y.Y././.P.[.[./.{./././.Y.J.A.A.=.=.=.=.=.:.>.G.P./.E , I 8 f ^ ~ Y Q ^ Y 9 x Y./.G.G.G./. XY.C.G.G.>.$.%.=.%.&.$.=.:.:.>.w.A.R.",
"L.Y./.Y.[.{.{.(.|./././.Y.Y.Q.G.q.%.=.*.8.=.w.G.G.W.{ h 9 : f ^ ^ ^ ^ R T f h V.G.G.G.G.L.(.{.L.A.A.q.%.&.=.&.8.&.&.&.&.%.=.q.D.",
"G.L././.[.{.{.{.|.{.{.|._._.!.G.Z.&.=.=.8.=.A.G.G.G.G. .X X f ^ ^ ^ ^ 9 8 , g G.G.Q.L.G.G././.G.J.R.Z.=.=.=.&.&.&.%.=.=.%.%.&.=.",
"G.L./.{.{.{.{.{.[././._._._.!.G.A.%.*.=.&.%.A.G.G.G.G.V.t.X 9 ! R P 8 R ^ Y x Q./. X/.G.G.Q.Q.G.G.G.A.:.&.=.=.&.&.&.=.q.=.=.=.=.",
"G.J././././.Y.Y.Y.Y./._.).|./.G.Z.#.%.=.%.&.A.G.G.J.G.G.G.X ; 9 T R R R < { /./.Y.|.Y.J.G.A.G.G.G.A.D.q.&.%.=.%.=.&.&.%.$.$.&.&.",
"A.G.!./././.L.C.G.G.J.L.Y._.!.G.q.#.#.=.&.:.A.K.Y.L.G.G.R.O , ; : , : : 2.r._._.Y.Y.Y.J.A.:.:.Z.G.G.R.A.=.%.=.*.=.=.=.=.=.;.q.q.",
"G.J./.(. X/.G.B.G.A.A.G.J.J.G.>.=.%.#.=.=.q.G.K.Y.5.1.<.1.* 8 : : : - * ,.6.Y.Y.Y.Y.Y.W.B.$.$.:.q.A.D.q.%.%.=.=.%.=.q.Z.A.R.R.R.",
"L.Q./././.L.G.B.J.A.A.A.A.G.A.:.%.=.#.%.:.A.G.K.6.H i.s.s.s.D U U U P G i._ 1.4.{._._.!.A.&.%.=.%.:.8.=.&.&.=.=.&.q.A.J.J.J.G.G.",
"/././.L.G.G.A.A.Z.q.q.q.>.B.q.&.%.8.%.=.q.R.w.4.H h.m.M.M.m.j.L L L L j.m.c.h.f.4./._.W.A.:.=.&.%.=.=.%.=.=.%.=.&.q.R.!.!./.!.Q.",
"_.!.G.w.:.q.q.q.q.8.=.=.7.=.&.&.&.=.=.q.Z.A.w.) u.v.M.M.M.m.v.k.k.k.k.b.M.m.M.z.) G.J.A.A.q.:.=.&.=.=.=.%.%.%.=.&.>.A.!.).Y././.",
"J.J.G.:.&.&.&.&.%.%.&.&.&.=.=.=.%.%.&.q.A.G.w.) g.m.m.m.v.M.m.m.m.m.m.M.m.M.m.h.) G.G.A.D.q.8.=.&.&.&.&.&.&.&.&.&.:.Z.J.Y.Y./.].",
"!.J.A.:.&.=.;.&.&.&.&.&.7.&.&.&.%.%.%.:.A.A.0.) h.m.M.x.s.M.m.M.M.M.M.M.M.M.c.M ) G.G.A.D.:.&.=.8.=.=.=.=.=.=.=.&.&.:.Z.J.J.E.].",
"A.B.:.;.;.q.q.&.=.=.=.=.&.&.&.&.=.=.&.=.q.:.@.( h.m.m.h.B m.m.m.m.m.m.m.m.M.x.N 3.G.A.>.q.%.&.=.=.&.&.&.&.&.&.=.&.=.=.:.Z.G.R.'.",
"$.:.:.w.A.A.q.:.&.&.%.%.%.&.=.=.=.=.=.=.=.%.+.( G x.n.s.N m.m.m.m.m.m.m.M.m.z.M 3.A.Z.&.=.&.=.=.=.=.&.=.&.&.=.=.&.7.7.&.:.A.D.D.",
"#.:.A.G.G.G.A.A.q.:.:.=.=.=.%.&.&.=.8.=.=.%.@.b C K J G M k.m.m.m.m.m.m.m.m.l.5 ,.A.Z.&.=.&.=.&.=.=.=.=.=.=.&.=.&.8.8.%.&.q.w.e.",
"$.:.A.G.G.G.G.G.R.A.Z.Z.q.q.=.%.&.7.8.=.=.&.@.v 9 U , 5 M s.m.m.m.m.m.m.m.m.j.; [ G.A.=.=.%.=.=.=.%.%.:.q.=.%.$.&.7.7.=.=.;.q.D.",
":.>.G.Q.(./.W.G.R.G.A.A.A.A.:.%.=.7.7.=.=.%.+.v I ^ 8 5 M s.m.m.m.m.m.m.m.m.j.: } G.A.=.=.%.8.q.q.:.:.Z.D.A.q.=.&.&.7.q.=.&.q.D.",
"G.G.G.L./.).P.Y.K././.Q.G.B.Z.=.=.&.7.:.&.&.$.v I ^ 8 5 M a.c.m.m.m.m.m.m.m.j.: [ A.q.=.%.=.A.D.D.A.A.A.R.F.D.A.q.=.&.=.;.q.D.R.",
"J.G.G.L./.Y.Y.Y._._.(./.L.G.A.>.&.q.=.%.q.Z.7.v P ^ 8 5 M p.d.m.m.m.m.m.m.m.j.: [ ;.&.%.$.:.A.R.A.A.A.A.A.Z.Z.R.D.A.A.Z.w.A.R.E.",
"L.L.K.L.Y.Y.).)._._./. X/.J.G.w.$.q.=.%.D.D.&.v P ^ 8 * m y.s.b.b.m.m.m.m.m.j.; [ &.:.=.:.A.R.A.Z.Z.G.R.Z.=.:.w.A.J.G.G.G.G.L.Q.",
"Y.Y.Y.Y.Y.Y.Y.Y.K.G.G. X XJ.G.w.=.%.%.q.D.q.X.z P ^ 8 5 m y.a.s.d.c.m.m.m.m.j.; [ q.A.A.D.R.A.:.$.:.G.D.:.%.&.=.>.A.G.V.K.Y.Y./.",
"K.Y.Y.Y.Y.Y.Y.Y.G.V.G.(.(.G.G.w.=.$.:.D.q.&.X.z I ^ 8 * m y.y.y.y.y.y.c.m.m.j.; [ Z.A.D.D.D.Z.$.$.:.A.A.=.%.=.&.>.A.G.K._.|.Q.Q.",
"V.G.K.Y.Y.Y.Y.Y./.G.G./.Y.G.G.A.:.:.A.A.;.;.&.x P ^ 8 # % * = = = = = V V V 6 ; [ &.=.:.:.q.:.$.$.:.q.:.%.%.:.:.A.G.!.(.|.{.G.G.",
"V.V.G.Y./.Y.Y.Y. XL.G.Q.Y.K.L.G.G.G.G.G.>.A.0.v P ^ f : O # 3 3 1 1 1 1 3 3 1 ; W X.#.%.%.%.=.%.&.:.;.=.=.%.=.w.D.A.!.|.{.Y.G.G.",
"G.G.G.!._./.Y._./.H.G./.|.Y.Y.L.H.H.G.G.H.G.0.E I ^ ^ P ; 4 j j j 4 4 8 j j 4 : U v +.=.*.%.*.&.=.=.=.=.q.%.&.A.D.A.J.Y.K.K./.!.",
"G.J.L.Y.Y._.Y.K.L.C.V.G./._././././././.|./.w.v f Q U 8 ; j j j 4 # # 4 j j 4 ; I ` &.$.%.=.=.&.=.=.=.%.&.&.=.:.A.A.A.G.B.C./.(.",
"G.L.Y././.L.G.V.L.G.G.J.!./././.Y./././.|.!.w.| d P , ; : j j 4 O . ; j j k 4 - d ' q.q.=.%.&.8.%.%.%.&.:.=.&.&.$.:.:.B.G.K./.Q.",
"/.(. X_.Q.G.A.A.A.A.A.G.J.Q.Q././././.(.(.Q.A.q.] e ; - ; k k 4 # . ; j k k 4 + n +.q.S.:.$.%.=.=.:.=.=.=.=.&.=.$.$.$.:.B.K.Q.G.",
"L.Q.!.J.B.:.:.:.;.;.:.w.A.J.L.Q.Q././.!.!.G.A.G.0.O.w O ; k j 4 # X # j k k 8 > ..%.q.S.=.%.=.&.A.D.Z.=.%.$.=.Z.D.A.q.A.K.Y./.G.",
"J.J.G.A.:.$.$.=.$.$.&.&.>.Z.G.G.G.G.G.A.A.A.w.A.A.w.y X ; k j 4 # X # j k k 4 q #.&.A.S.=.&.:.&.D.R.D.q.&.=.q.A.D.R.R./././.Q.t.",
"J.G.A.Z.:.&.&.:.q.:.&.$.&.:.q.q.Z.q.>.:.:.:.$.&.&.&.w X ; j j 4 # X O j j j 4 q :.q.Z.q.%.&.:.&.A.D.D.A.A.A.A.A.A.G.G.L.L.L.Q.G.",
"A.B.>.:.;.$.:.A.G.A.>.&.$.%.=.=.:.=.=.=.:.=.&.&.%.$.w X ; j j 4 # X # j j j 4 w G.A.Z.:.&.&.=.$.q.A.G.G.G.J.J.J.L.!.L.L.K.K.(.E.",
"A.N.$.$.$.:.G./.G.A.Z.:.$.%.%.*.&.&.&.8.S.S.q.q.q.:.z O ; k j 4 # X # j k j 4 w B.G.G.>.:.&.&.=.>.G.W.G.G.G./.|._.|.(._.K.K.Q.R.",
"A.:.$.&.:.G.(.{.L.J.G.Z.:.&.%.%.=.&.8.S.A.D.D.w.A.A.z O ; j 4 1 # X # j j 4 ; r Y.L.J.G.A.>.:.;.B.G.J.!./././.Y._././._._.L.G.t.",
"A.>.>.q.A.W././.(.L.G.A.Z.Z.q.:.&.$.&.=.=.q.Z.w.>.Z.z O ; 4 4 1 # X # j 4 4 ; r /././.!.J.G.A.A.G.G.L.!.(._././._./././.Y.L.G.t.",
"V.J.G.G.W.!./.Y././.!.J.G.A.A.A.:.&.%.$.$.;.A.A.:.w.z O ; 4 4 ; # X O 4 2 1 ; r |.|.|._././.!.!.Y.Y.Y./.|._._._.Y.Y.|.|.|.Y.G.G.",
"K._.Y.J.L./.Y.}.Y._._.Y.J.J.J.G.A.q.>.:.:.q.D.R.:.>.z O ; 4 4 ; + X O 4 2 1 ; r Y.{.{._._._._._. XY.Y._.Y././._.Y.{./._.Y.K.G.R.",
"Y.|.|.P.Y._.).).Y._./.Y././.L.V.G.A.A.A.A.A.D.D.:.q.y X ; 4 4 ; + X O 4 4 2 ; r Y.Y.Y.Y.Y.Y.Y.Y.|.).Y.Y.P.K.J.L./.Q.Q.G.B.B.J.].",
"L././.Y.).).Y.K.Y._.|././.{.Y.C.G.J.G.G.G.A.q.q.&.q.t X O ; ; O + X O # # # O r Y.Y.Y.Y.Y.Y.Y.Y.Y.[.Y.K.C.G.A.A.G.G.G.G.A.G.Q.].",
"G.G.J.Y././.L.V.G.!.|./././.P.G.G.Y.L.K.J.A.;.=.=.A.z . . . . + 0 # . . . . O n _._.Y.Y.Y.Y.Y.{.Y.[.Y.K.G.G.A.;.;.q.A.A.J.J.G.E.",
"G.V.G./._._.Q.G.G.J.L.G.L.{.P.V.Y.|.|.Y.L.>.;.=.=.D.l o # # O g 6.z O # # O 0 G././././././.{.{.[.|.Y.K.G.J.A.;.0.=.q.q.Z.A.G.R.",
"D.G.K.).).!.R.D.G.Z.Z.Z.A.G.K.J._./.Y.Y.P.V.:.=.Z.Z.l O 1 F F s o . O # Z S Z o v !.|._./././.[.[.[.Y.Y.K.G.B.>.=.%.%.=.:.:.q.e.",
"q.Z.V.P.!.W.R.A.>.:.:.:.:.A.J._./././.Y.Y.J.w.0.%.=.l O # 1 A A C & # # & 7 A A s ` G./.|.|.Y.[.[.Y.Y.Y.L.J.G.B.:.&.%.%.&.=.=.7.",
"&.&.:.B.A.A.q.:.=.&.&.%.$.:.J._./._._./.Y.J.A.7.%.=.c # # & 7 7 7 & # + # 1 7 7 3 ` >.L._._.Y.[.[.Y./././.!.G.G.A.q.q.=.&.=.7.7.",
"%.$.$.=.q.7.=.=.=.=.=.=.$.:.A.!.Y._.(./.J.A.q.7.=.=.| c c n n n / / / / / ] ] ] ] o.>.G.Y.Y.Y.[.Y.Y.Y./._./.Q.G.G.A.Z.:.=.=.8.7.",
"&.%.&.=.7.7.=.=.=.&.8.=.&.:.Z.J.Y./.(./.J.:.&.&.=.&.&.=.=.=.=.&.=.Z.R.!./.Y.H.V./.L.G.C.K.Y.}.[.}.Y.Y.Y._._.Y.K.B.G.Z.>.&.*.=.7.",
"=.=.=.=.7.=.=.=.=.&.&.%.%.:.A.G.{./././.J.-.$.;.:.:.q.q.:.&.&.&.%.>.G.W././.L.G.G.G.G.C.K.Y.|.[.}.}.Y.Y.{._.Y.L.B.G.A.A.:.=.=.&.",
"&.&.;.q.q.q.=.%.8.=.=.%.&.>.A.G.Y./././.K.B.>.w.A.A.R.R.w.>.>.:.=.q.A.G.L././.L.G.G.G.G.L./.{.{.Y.{.Y././.{././.G.A.Z.Z.:.:.7.7.",
"@.&.:.A.D.D.q.=.=.=.=.=.:.Z.!.!././././.Y.K.G.A.R.G.W.W.G.D.R.A.q.A.G.G.G././.Y./.L.G.Q././.{.{./.{./././.(.{.(.J.A.:.=.&.=.7.7."
};
