/* XPM */
static char *_49deb27fa1440b489605494c5a1baa7LGZTahD3ZO8zROKy[] = {
/* columns rows colors chars-per-pixel */
"32 32 128 2 ",
"   c #130D0C",
".  c #1A0F0C",
"X  c #1C1009",
"o  c #1B1311",
"O  c #21130E",
"+  c #251B0E",
"@  c #311B0F",
"#  c #251612",
"$  c #2C1610",
"%  c #231913",
"&  c #2B1A14",
"*  c #271B19",
"=  c #2D1C19",
"-  c #331D15",
";  c #3A1C13",
":  c #361F18",
">  c #2B270E",
",  c #2C290F",
"<  c #252211",
"1  c #2C2112",
"2  c #2B2B12",
"3  c #2F251D",
"4  c #3E2116",
"5  c #332B11",
"6  c #35211A",
"7  c #3C2119",
"8  c #333215",
"9  c #3B3B16",
"0  c #35341A",
"q  c #3C381C",
"w  c #1C1F26",
"e  c #2D2624",
"r  c #302420",
"t  c #3D2D2A",
"y  c #242932",
"u  c #212D3A",
"i  c #2B313C",
"p  c #353335",
"a  c #3A3437",
"s  c #35343A",
"d  c #422917",
"f  c #42251A",
"g  c #49271A",
"h  c #4A291C",
"j  c #502B1E",
"k  c #413616",
"l  c #413A16",
"z  c #493719",
"x  c #532E20",
"c  c #5A3122",
"v  c #374016",
"b  c #3E4517",
"n  c #3E4020",
"m  c #464115",
"M  c #484B1C",
"N  c #4A5016",
"B  c #45541F",
"V  c #4C521A",
"C  c #4B5918",
"Z  c #525917",
"A  c #54571B",
"S  c #555A1B",
"D  c #5A5D1E",
"F  c #5A631D",
"G  c #5E691F",
"H  c #57771A",
"J  c #5C761C",
"K  c #57781B",
"L  c #5D781D",
"P  c #61771C",
"I  c #627B1D",
"U  c #6A7D1E",
"Y  c #4A5C28",
"T  c #505824",
"R  c #42513A",
"E  c #4A593D",
"W  c #546124",
"Q  c #54632A",
"!  c #5D6C2B",
"~  c #5D7621",
"^  c #5F7920",
"/  c #607524",
"(  c #697524",
")  c #657D21",
"_  c #697E22",
"`  c #707F2B",
"'  c #253140",
"]  c #2D3C4C",
"[  c #313642",
"{  c #313944",
"}  c #30404D",
"|  c #3A4A4E",
" . c #2F4154",
".. c #364856",
"X. c #394956",
"o. c #36485A",
"O. c #394B5B",
"+. c #394D61",
"@. c #3E5164",
"#. c #3F5469",
"$. c #41566C",
"%. c #43586D",
"&. c #6C811F",
"*. c #678022",
"=. c #6C8223",
"-. c #6B8028",
";. c #738524",
":. c #788726",
">. c #758924",
",. c #768824",
"<. c #778826",
"1. c #788923",
"2. c #7A8A26",
"3. c #7B8C27",
"4. c #7D8E25",
"5. c #738528",
"6. c #71842A",
"7. c #778928",
"8. c #77892A",
"9. c #788B29",
"0. c #7B8B28",
"q. c #798C28",
"w. c #7B8D2A",
"e. c #7F8D29",
"r. c #7F9129",
"t. c #818D27",
"y. c #808E28",
"u. c #819028",
/* pixels */
"K J L ) 5.9.2.4.e.e.e.e.e.e.2.,.9.e.;.2.e.4.4.e.e.4.;.*.P L L / ",
"H H L U ;.,.2.4.y.4.4.4.4.4.4.,.4.r.e.,.4.4.4.4.e.4.;.P H H J ~ ",
"K L _ ;.1.1.,.4.e.e.2.4.4.4.4.U ;.2.4.1.4.4.4.4.e.e.5.) L L P / ",
"J L =.2.y.e.,.q.q.,.,.4.e.;.V 2 < 9 F 2.y.4.4.4.9.9.=.) =.=.=.=.",
"I P =.4.4.,._ =.=.=.,.2.;.b o o # # 1 G u.t.4.1.=.=.) J =.,.2.7.",
";.=.,.4.e.;.P P ) U =.,.;.2   : h x f S 3.e.e.=.P L L J _ q.e.e.",
"2.;.1.4.e.,._ P L L ) ;.;.8 O f 7 h - S 1.;.q.;.=.L H J ) 7.2.e.",
"4.e.t.y.e.3.,.=.L J P ;.;.k - g h h : D 2.;.e.2.5.P H H L ) =.5.",
"2.e.y.y.y.y.e.7.P J L =.;.A @ g c j 4 A 2.;.9.2.5.I K K H L L ) ",
",.e.y.4.4.e.u.7.I K L =.,.,.m ; g g z ( e.2.;.5.5.=.L K K L L L ",
";.e.e.1.;.,.3.5.L K P ,._ ! n $ @ = T 2.4.2.U P =.=.L L L ) ) _ ",
"q.9.;.=.=.=.=.I H J =.( R X.X.a t s | E ` q.) L L L K L P 5.7.7.",
"q.=.P P L L L J H P =.Q ..$.$.@.O.@.$.O.Q 5.=.L K J K K P 5.q.q.",
"=.I P L K K K K K L ) Y O.+.o.%.%.%.$.} Q =.) L J J K K L I 5.7.",
"P _ =._ P L J K K L L B s [ ] $.$.$.$.{ W U L L J L K L L L P -.",
"I 5.,.5.=.=.*.L L ^ L N f = ' #.$.$.$.p D ) K ^ P P ) L L L L _ ",
";.,.4.4.q.q.;.U L L I V g = u +.$.$.$.p S P L =.=.=.=.=.) ) _ 5.",
"3.3.4.4.2.e.9.=.L L *.N g = u  .+.#.$.p Z ) =.=.U =.I P =.;.,.9.",
"1.3.4.4.1.2.2.=.I _ P N g & w y y i { e Z ) *.P L ) L P =.2.r.2.",
";.2.e.4.2.2.4.2.;.;.;.A h 4 # = & & = $ m J J H L L K ) =.q.4.2.",
",.3.4.2.,.,.e.e.e.e.e.F d - & : O & 6 $ l J L K J L L L U &.1.q.",
"q.q.=.U ) _ 5.9.9.e.9._ V + & - X & 6 1 C ) L L ) P J P P U ,.2.",
";.=.P J P J U =.=.=.) U J > & - . & 6 5 H ) J L =.=.U =.5.,.3.:.",
"=.P P =.=.I H J L L ) P J > & = X & 6 5 ) =.P J =.5.;.2.q.q.2.9.",
"&.P =.e.9.=.U L K L ) =.) 2 & & X & = 5 ;.2.;._ ;.2.e.e.e.e.4.5.",
"1.,.q.e.e.3.,.=.U P P =.P , # # X O # 5 ;.u.e.e.4.4.e.e.e.r.2.;.",
"4.4.4.3.4.e.e.1.;.;.=._ L > O O X X O 5 ;.t.4.4.4.4.1.5.;.,.;.9.",
",.2.e.,.,.9.9.1.2.3.;.P L , . + > . . 9 :.r.e.e.t.1.,.U P ) =.5.",
"=.1.q.=._ U =.,.e.e.1.) K 2 # r % X * 3 V 2.r.y.t.4.,.&.P J L ) ",
"J P ) P L J P ,.e.e.,.) H v 2 0 0 8 0 q M ;.4.t.t.e.e.;.=.P L ~ ",
"K L ~ L J L P =.e.e.&.L P L H J L =.;.;.;.,.3.t.t.4.e.2.;.=.L K ",
"J ) ) L J L I ,.e.e.,.=.=.5.=.) ) 5.2.4.:.;.e.y.y.e.e.e.;.) L ~ "
};
