/* XPM */
static char *c0c25a37fafa4f5e956c7babc7fef58f4ZACvVjb4q2zWptR[] = {
/* columns rows colors chars-per-pixel */
"64 64 229 2 ",
"   c #3B392F",
".  c #641F29",
"X  c #5E242C",
"o  c #532E2E",
"O  c #5C2A2C",
"+  c #43332D",
"@  c #49352D",
"#  c #4C2E32",
"$  c #5E2632",
"%  c #532D33",
"&  c #5C2B35",
"*  c #5D2C3A",
"=  c #5A2C39",
"-  c #4D3234",
";  c #4D3A39",
":  c #523234",
">  c #5C333B",
",  c #593739",
"<  c #4E302D",
"1  c #632326",
"2  c #65252C",
"3  c #6A252C",
"4  c #65292D",
"5  c #6B2A2D",
"6  c #682527",
"7  c #712B2E",
"8  c #632634",
"9  c #6B2632",
"0  c #642A34",
"q  c #6C2B33",
"w  c #632D3A",
"e  c #6A2C3A",
"r  c #6A263A",
"t  c #722C34",
"y  c #732D39",
"u  c #762A37",
"i  c #6D3135",
"p  c #64303C",
"a  c #6D323A",
"s  c #69373B",
"d  c #723135",
"f  c #73333A",
"g  c #7B353C",
"h  c #73393C",
"j  c #7C3B3E",
"k  c #793336",
"l  c #3B4936",
"z  c #3A5838",
"x  c #3B472F",
"c  c #46433C",
"v  c #49423B",
"b  c #444739",
"n  c #53443F",
"m  c #42563B",
"M  c #7B403C",
"N  c #5E3841",
"B  c #662C41",
"V  c #693942",
"C  c #743642",
"Z  c #7B3542",
"A  c #763842",
"S  c #7C3B43",
"D  c #7C3B49",
"F  c #4C4341",
"G  c #4A4B44",
"H  c #534443",
"J  c #524946",
"K  c #5C4748",
"L  c #465046",
"P  c #54514C",
"I  c #674A4B",
"U  c #7D4145",
"Y  c #7E424A",
"T  c #75474A",
"R  c #705156",
"E  c #57624F",
"W  c #586A59",
"Q  c #587C5B",
"!  c #4C6E4C",
"~  c #686259",
"^  c #5A7D64",
"/  c #567C64",
"(  c #627B65",
")  c #637C6C",
"_  c #6B7C6D",
"`  c #687566",
"'  c #74796D",
"]  c #787771",
"[  c #706E67",
"{  c #81353D",
"}  c #823A3E",
"|  c #8B3F3F",
" . c #89483F",
".. c #93433E",
"X. c #99443E",
"o. c #833643",
"O. c #843D44",
"+. c #8B3D45",
"@. c #853D4A",
"#. c #8A3D49",
"$. c #893744",
"%. c #923E46",
"&. c #993F48",
"*. c #893F50",
"=. c #844245",
"-. c #8D4445",
";. c #8E4A44",
":. c #85434B",
">. c #8D454B",
",. c #854A4D",
"<. c #8D494C",
"1. c #874A45",
"2. c #934445",
"3. c #994544",
"4. c #934944",
"5. c #93454B",
"6. c #98434B",
"7. c #92494C",
"8. c #99494D",
"9. c #9A4846",
"0. c #8D4551",
"q. c #864B51",
"w. c #8C4A53",
"e. c #884853",
"r. c #934551",
"t. c #984650",
"y. c #924A52",
"u. c #994852",
"i. c #8C5155",
"p. c #3E8C59",
"a. c #3B8D54",
"s. c #4A8E4C",
"d. c #468A4A",
"f. c #4A914D",
"g. c #4A9149",
"h. c #4B8B55",
"j. c #4A845C",
"k. c #448C5C",
"l. c #4A8A5D",
"z. c #468756",
"x. c #538D5B",
"c. c #598B5E",
"v. c #55865C",
"b. c #449553",
"n. c #4B9353",
"m. c #479458",
"M. c #56935B",
"N. c #53974C",
"B. c #5EA254",
"V. c #6FB54C",
"C. c #72B54D",
"Z. c #6BAE5C",
"A. c #62A55E",
"S. c #6EB552",
"D. c #6EB954",
"F. c #6DB45D",
"G. c #6FB85E",
"H. c #72B653",
"J. c #72BA55",
"K. c #79BB53",
"L. c #72B75C",
"P. c #73BA5B",
"I. c #79BC5B",
"U. c #78B65D",
"Y. c #4A8463",
"T. c #4C8B63",
"R. c #4B846A",
"E. c #458964",
"W. c #518463",
"Q. c #5C8262",
"!. c #578669",
"~. c #559360",
"^. c #4C8C6B",
"/. c #638468",
"(. c #689D67",
"). c #638270",
"_. c #6AA665",
"`. c #6EB463",
"'. c #6CBB6C",
"]. c #6EB768",
"[. c #73B663",
"{. c #74BA63",
"}. c #75B46C",
"|. c #75BB69",
" X c #7ABA6B",
".X c #7AB866",
"XX c #6FBA72",
"oX c #74B574",
"OX c #72BB71",
"+X c #79B67A",
"@X c #71A972",
"#X c #7CC15D",
"$X c #7EC361",
"%X c #6FC071",
"&X c #80BA65",
"*X c #86C95C",
"=X c #85CA65",
"-X c #8BCD64",
";X c #87CA66",
":X c #8ED165",
">X c #8ED36C",
",X c #91D364",
"<X c #92D46B",
"1X c #9BDD6B",
"2X c #94D86E",
"3X c #8FD570",
"4X c #92D672",
"5X c #93DA73",
"6X c #9CDE73",
"7X c #9ADC7A",
"8X c #96D978",
"9X c #88CA70",
"0X c #A1DF73",
"qX c #A0DF6C",
"wX c #9EE16E",
"eX c #9DE173",
"rX c #9EE37A",
"tX c #A1E26E",
"yX c #A1E36C",
"uX c #A2E271",
"iX c #A1E571",
"pX c #A4E572",
"aX c #A1E276",
"sX c #A2E576",
"dX c #A5E576",
"fX c #A4E372",
"gX c #A2E57B",
"hX c #A7E97B",
"jX c #A3E582",
/* pixels */
"yXyXtX1XiX1XiXtXyXyXyXyXtXiX0X0XfXpXtX1XtXtXwXtXtXpXtXtXtXwXtXwXwX1XiXwX6XsXeX1XtXiXtXtXpXiXiXiXfXtX1XfXiX0XdXtXiXtXiXtXwXeX6XgX",
"iXwXiX1XhXdXpXtX1X1XtXtXpXhX6XdX1X1XpXiXdXhXtXdXtXtXiXtXtXiXpXdXwX1XiXeX6XhXsXsXwXwXtXpXiXdXdXdXtXqX1XdXdXiXhXdXtX1X1XwXdXhXgXeX",
"wXeXsX*X<X,X:XsXsXiXiX,X,X<X-X0XdXwXsX,X-X,X*X1XaX6XaX<X:X,X*X,XiXwXsX1X:X<X:X:XaXiXeXsX:X<X-X-XiXiX0XaX2X:X<X:X1XiXeXsX1X-X>X-X",
"eXeX6XC.C.C.K.aXhXaXeXK.C.K.H.4XhX6XaX*XC.K.C.:XgX6XgX-XK.K.C.*XsXeXsX>XK.J.C.J.eXaX6XeXK.K.H.C.1XeX0X6X-XC.C.C.:XgXaXgX-XV.K.J.",
"rXeX5XC.H.J.K.6X6X6XeXK.H.J.H.8XgX7XgX*XC.J.C.>XgX7XjX;XH.H.C.=XeXeXgX>XJ.V.H.J.7XrXeXrXH.H.H.H.2XeXgXeX=XC.H.C.-XrX7XrX>XH.P.H.",
"gXrX7XK.J.J.$XrXgXgXrX*XJ.I.P.7XjXrXjX=XH.J.J.<XjXjXjX>XI.J.J.=XrXrXgX5XI.J.J.I.rXgXrX7XI.P.J.I.7XgXhXgX;XJ.I.J.<XrXgXjX3XP.I.P.",
">X>X>XI.J.S.$X3X5X4X>XI.L.P.{.9X8X4X>X#XH.J.J.=X4X4X3X=XP.H.L.I.2X>X5X=XI.P.J.P.>X5X3X>XI.J.L.P.>X2X<X3X=XH.I.H.=X3X5X4X$XH.L.{.",
"J.J.J.J.#XJ.I.S.H.H.J.J.P.P.L.P.H.J.J.J.I.I.J.P.H.P.H.J.J.H.I.I.J.V.J.J.S.J.P.P.H.J.J.J.P.L.L.P.H.C.V.J.H.H.I.J.J.S.J.J.P.P.L.P.",
"J.D.D.D.J.J.J.I.J.J.J.P.J.L.P.P.L.J.J.J.J.I.J.J.J.J.J.J.J.J.J.J.J.J.J.J.J.J.J.J.J.J.J.J.P.P.J.J.J.J.J.J.I.J.J.J.J.J.J.J.J.J.J.J.",
"J.J.J.P.P.J.J.J.J.J.J.J.P.P.P.P.J.P.P.J.J.J.J.J.D.J.J.J.J.J.J.J.J.J.J.J.J.J.J.J.J.J.J.J.J.P.J.P.J.J.J.J.J.J.J.J.J.J.J.J.J.J.J.J.",
"D.J.P.P.J.J.J.J.J.J.J.J.I.P.{.P.P.J.P.J.L.H.J.P.J.J.J.J.J.J.J.I.J.J.J.J.J.J.J.J.J.J.J.J.P.P.P.P.J.D.D.J.P.J.J.J.I.J.J.J.J.I.J.J.",
"G.P.{.P.G.{.{.P.P.I.J.J.J.P.P.P.P.P.P.P.P.P.P.P.J.P.I.J.J.J.J.I.P.P.P.P.{.{.P.P.J.J.J.J.J.P.P.J.I.J.J.P.{.{.{.P.P.J.J.J.J.I.J.J.",
"G.G.G.F.`.{.P.L.J.I.I.J.D.J.P.{.[.F.F.L.{.P.L.L.P.P.P.J.J.J.J.J.L.L.L.[.[.[.L.P.P.J.P.P.P.P.J.P.P.F.F.G.{.`.F.G.P.J.J.J.P.P.J.L.",
"{.{.{.|.|.].[.P.L.P.I.J.J.P.{.{.|.|.[.|.|.{.{.{.L.P.J.J.J.P.P.P.{.{.{.{.|.{.{.{.P.J.P.P.P.P.P.{.|.{.{.{.|.{.{.{.L.J.J.J.P.P.P.P.",
"`.`.`.[.`.Z.`.|.P.P.P.J.P.P.P.Z.`.`.`.[.`.`.`.{.{.L.L.P.P.P.J.G.`.`.`.`.`.[.[.[.[.{.P.P.P.P.L.[.[.`.`.].`.`.`.`.F.F.P.P.J.L.P.{.",
"f.f.n.n.f.g.N.Z.L.L.L.L.P.{.Z.B.s.h.n.n.s.g.N.B.|.{.P.P.P.P.L.F.g.f.f.f.f.f.g.g.[.[.{.P.P.P.L.[.f.f.f.n.n.s.s.g.Z.L.[.{.L.L.P.{.",
"E.p.k.k.k.d.n.}..X.X&XU.[..X|.n.k.^.E.T.l.h.d.A. XF.{.P.{.{..X_.z.k.p.p.k.k.z.n.]..XL.U.I.I.L..Xn.z.k.k.T.k.h.d._. X X.X.XP.P.P.",
"R.R.R.R.T.j.x.@X}.[..X[.[.}.oX~.Y.^.R.R.W.W.h.(.OX`.{.{.{.[.}._.j.Y.Y.Y.Y.Y.j.h.oX}.[.[.{.{.{.}.~.Y.^.R.^.Y.W.j.(.}.}.[.[.F.`.`.",
") ) ) ^ ) /./.+X+X].OXXXOXXXoXc./ ) ) ) ( /.Q (.+X].%X'.XXXX+X@X^ ) _ ) ) ^ Q.c.oXoX'.'.'.'.'.oX/.^ _ _ _ ( /.v.(.+XOX'.'.'.'.OX",
"G c c c c l m c.x.b.b.b.m.n.x.z l c v v v b x ! c.h.m.b.m.m.x.Q l F F v F c l z c.M.m.b.b.m.n.M.z l c c J c b l ! x.m.b.b.b.n.n.",
"- # > , : + b Q v.k.p.a.z.x.Q.m + : o : : < + E /.j.k.p.k.l.W.W   : = = * = - b ( W.k.a.k.k.l.Q.b + - % > > ;   ! v.k.a.m.z.h.j.",
"% O 0 0 w % H ' / j.T.k.W.Q.` b < O O 0 0 % < ~ _ Q Y.j.W./ ) W - & 0 r r r = ; ` ^ Y.k.Y.j./ ( n : % 0 e 0 = + E ^ j.j.T.W.Q.^ ",
"4 4 9 2 8 0 N ~ ` ^ !.!._ ` [ I O 4 2 4 0 0 % I ' ` ).) _ _ ] [ % 0 r r u r 0 , ] ' ).!.)._ _ ] , o 0 9 y 9 0 % ~ _ ( ^ ).) _ ' ",
"j =.=.O.@.Y V I P G L L G n I h S >.O.S S Y V R H F P J J H K , T Y @.#.#.#.@.T H J G G G J H K T h U O.#.$.@.T , K G G J J K K ",
"<.-.7.5.>.y.q.& % # - - : % 0 Y y.-.>.w.,.q.q.V % - - - : o o s ,.,.<.>.5.5.<.q.O % - - : : = & Y ,.<.5.t.t.r.w.s % # - - % = = ",
"-.-.5.5.-.7.>.9 e 0 w w 0 8 0 :.5.%.5.<.:.,.q.h & w w 0 0 O O i 1.;.-.-.-.-.-.>.q 0 0 0 0 0 0 0 =.-.5.5.5.5.5.y.g e 0 w w & w 0 ",
"2.2.2.2.2.5.-.u 9 9 r r 8 2 0 S 5.&.5.5.=.,.,.A 1 2 9 9 4 1 4 d -.2.2.2.2.-.-.-.3 3 2 3 9 9 3 3 +.2.2.2.2.3.2.5.u 9 9 r 8 8 0 8 ",
"&.3.3.2...2.2.{ $.$.#.@.O.S S <.6.&.6.5.-.-.<.=.j O.O.O.O.j M 1.2.3.3.2.2.4.4.2.} o.o.#.O.O.O.} %.6.3.3.3.3.2.5.%.$.$.@.O.S Y U ",
"&.6.3.....2.2.2.u.t.u.t.y.w.=.<.5.6.5.2.2.2.4.2.8.y.r.r.y.<.<.7.6.3.3.3.3.2.2.2.8.t.t.t.y.7.<.>.5.8.6.3.9.3.2.2.8.5.t.u.r.<.,.,.",
"6.6.2.2...4.4.4.2.>.5.>.5.7.-.>.>.5.2.3.3...3.2.2.5.>.:.>.>.-.5.6.&.3.3.3.3.2.2.2.5.5.5.>.>.-.-.5.t.5.2.3.3...2.2.%.5.5.>.>.<.1.",
"5.5.5.-.;. . .;.;.7.y.>.5.8.5.u.>.<.2.2.3.X.X.3.5.8.r.>.r.5.5.u.6.6.5.3.2.2.2.5.5.t.r.r.5.5.4.7.>.r.>.-.4.4.2.2.2.5.u.u.5.7.4.;.",
"5.5.2.-.4.;.1.;.-.>.>.O.{ } { +.>.<.-.2.9.X.X.3.2.5.5.@.O.o.o.+.t.t.5.5.5.2.5.5.5.5.t.>.#.j g j 0.w.>.-.4.4.4.9.7.5.5.5.O.} j k ",
"3.3.2.2.2.;.<.<.7.>.>.9 3 9 2 =.7.5.-.2.5.5.6.5.5.#.r.Z 9 8 X f 5.5.5.5.2.2.3.3.6.2.5.>.t 2 e 2 =.>.>.>.2.2.5.2.3.3.2.5.g 2 X w ",
"3.3.3.2.2.-.>.>.5.5.>.t 2 9 8 =.7.2.2.5.5.5.5.5.t.5.u.Z 9 0 O h >.2.2.2.2.2.2.2.3.+.5.>.t 2 0 8 :.>.5.5.5.5.5.3.3.3.2.5.S 2 $ e ",
"3.3.2.2.2.2.-.>.>.>.>.t 3 9 2 S 8.2.2.5.5.5.5.5.5.%.5.g 3 2 X i >.5.5.2.2.2.2.5.2.2.5.>.t 2 0 9 =.-.5.5.5.5.5.2.3.3.2.5.} 9 8 w ",
"2.3.2.2.2.-.-.-.2.5.>.{ g g k O.5.2.2.2.2.2.2.5.5.2.5.+.g g h j 7.2.2.2.2.2.2.5.5.5.5.5.{ g g g -.-.>.5.5.5.5.2.2.2.2.5.O.g f C ",
"2.2.-.-.-.-.-.2.2.2.2.-.5.7.>.7.2.2.2.2.2.-.-.5.2.2.5.5.>.<.<.<.2.2.2.-.-.>.>.>.5.5.5.5.5.>.>.>.2.5.5.7.>.>.>.5.2.2.2.5.5.>.>.>.",
"2.2.-.-.-.<.7.4.2.2.2.2.5.7.7.-.2.3.2.4.;.-.-.7.-.-.2.2.5.7.2.-.2.2.2.>.<.<.<.5.5.5.5.5.8.5.5.5.2.2.5.7.7.>.5.5.5.2.2.2.5.8.7.5.",
"5.5.>.>.>.>.5.5.5.2.2.2.2.-.-.| 5.2.2.2.;.-.-.<.7.8.5.5.5.5.5.2.2.2.2.>.<.<.<.>.r.5.5.5.5.2.2.2.2.-.-.<.<.>.>.<.5.5.5.2.2.2.2.2.",
"5.>.:.=.=.=.-.-.5.5.5.6.2.2.8.7.2.2.-.-.=. .=.=.>.7.5.2.2.2.5.8.3.2.2.-.-.=.O.O.5.5.5.5.8.2.3.3.2.2.2.>.>.=.O.O.-.5.7.2.3.2.5.5.",
"r.0.#.3 6 q 6 >.5.5.5.5.5.2.8.5.5.2.5.k 6 6 1 g <.>.5.2.%.5.5.5.2.2.2.} 3 5 6 q :.5.5.5.5.3.2.2.2.-.2.7.f 2 e 3 { 5.2.5.8.2.2.8.",
">.0.#.9 3 q q y.5.5.5.5.5.5.5.>.5.5.5.k 3 6 2 j y.>.5.5.5.5.5.5.2.2.7.=.3 5 3 t >.5.5.5.5.5.2.2.2.-.5.>.g 2 e 3 g 5.2.2.5.2.5.5.",
">.0.#.9 3 3 9 >.5.5.5.5.5.5.5.5.5.5.5.g 3 3 2 j w.>.r.5.5.t.5.5.2.2.7.O.3 3 6 7 >.5.5.5.5.5.5.5.5.2.>.>.f 6 3 1 g 5.5.2.5.5.y.5.",
">.r.:.y t t t :.5.5.>.+.+.+.O.>.5.5.5.g k d q S >.>.r.#.#.#.O.:.5.-.7.+.t t t t 5.5.5.5.+.O.O.O.5.5.>.>.g t f t } 5.5.5.-.O.@.@.",
"5.5.>.=.:.>.=.y.5.5.>.k 7 t t O.5.5.5.-.-.>.=.<.>.>.0.o.t 9 q g 7.-.7.>.-.-.-.>.5.5.5.-.g q q q -.5.5.y.>.O.>.-.>.2.>.5.O.q e e ",
"5.5.5.>.7.7.<.<.>.>.:.t 6 6 2 O.5.8.5.>.7.y.<.y.>.>.0.g 3 . 2 f y.-.y.>.7.8.7.5.5.5.5.:.t 2 2 2 O.5.5.y.7.>.u.7.7.-.-.7.g 2 8 8 ",
"2.2.-.-.-.-.-.=.>.>.>.t 3 5 4 :.>.7.-.-.-.-.-.>.>.>.>.g 9 2 0 h y.#.7.:.5.-.2.2.5.2.5.:.q 8 w 0 @.r.>.>.5.-.5.2.5.-.>.7.S 8 e e ",
"2.2.-.-.-.-.<.<.>.>.>.t 7 t 2 =.-.7.-.-.-.=.>.7.7.>.5.O.t 5 q g y.#.y.:.<.-.>.5.5.2.5.>.t 9 a 0 O.5.>.>.>.>.>.>.>.>.5.7.g 9 a 0 ",
"-.7.O.3 5 7 5 >.7.7.>.+.-.5.-.5.5.5.y.t 3 q 3 O.7.>.5.5.5.5.-.>.5.>.>.=.0 a 9 q 5.5.5.t.5.5.<.>.5.8.-.y.d 4 q 5 } >.5.5.5.-.<.-.",
"=.<.=.5 3 5 7 <.-.-.5.2.5.5.%.5.5.>.>.t 5 i 4 j >.>.5.5.-.-.-.8.5.>.<.=.2 0 2 q >.>.5.5.5.2.2.-.-.5.-.y.f 2 9 9 Z :.r.5.5.-.4.;.",
"w.w.=.5 1 6 t <.<.7.7.7.5.5.5.5.y.y.<.d 1 1 1 j <.7.7.5.5.>.5.7.-.>.<.U 2 4 0 a w.w.y.7.5.5.5.-.7.y.<.w.f 2 2 2 S >.y.7.>.>.5.5.",
">.:.S q 5 q f =.>.>.=.>.>.5.5.>.>.>.>.f 5 4 i j :.=.=.>.<.>.7.>.<.<.<.S i 9 8 9 ,.,.:.=.7.5.5.5.>.>.=.=.Z y e e D Y :.=.=.>.5.5.",
"f a f S :.:.S d q t f :.y.>.>.k t t q S ,.,.=.h i d 5 j >.>.<.=.2 5 q f =.>.e.,.a i i d >.>.5.>.f q q y O.@.@.:.C p a i A <.5.5.",
"0 2 a :.w.w.,.9 2 2 5 =.w.>.>.t 3 2 2 U w.q.,.h 6 6 1 g >.>.<.j 4 5 4 d >.<.e.S 4 4 4 4 >.-.5.>.q 2 2 9 @.r.0.i.f 8 8 O f w.>.5.",
"q 0 i ,.q.e.>.9 q 9 q =.<.>.y.t 3 q 5 U ,.U ,.h 4 5 2 j <.>.w.S 1 4 1 q e.e.w.:.q 0 9 2 <.>.>.>.f 4 9 3 @.y.e.w.C 0 0 X f w.>.5.",
"2 2 f ,.q.>.>.3 1 2 q >.w.>.y.t 3 3 2 =.w.,.i.h 1 5 . g >.>.w.=.1 5 2 q e.,.w.:.9 9 9 1 w.>.<.>.q 2 9 2 :.w.e.w.f 2 0 2 f w.>.y.",
"O.=.S q d d t =.=.=.=.t d f 5 O.=.O.>.d q h q j =.O.=.g y t y g O.O.=.S a i f f @.O.@.>.y f f t O.O.O.:.h q f q h :.O.>.O.q f q ",
">.<.=.q 5 q t :.>.:.=.q 3 q 2 O.>.:.>.a 2 q 2 g y.w.y.S t 9 9 y r.r.e.U w X 2 0 0.>.r.5.7 9 2 1 >.7.<.,.h 4 4 2 S 0.:.r.O.3 q 4 ",
"<.e.=.9 1 2 q :.w.w.,.q 2 2 2 :.y.y.w.f 2 0 2 A e.e.e.Z 9 2 9 f 0.r.w.Y w & w e 0.0.r.r.y e w 0 @.>.>.,.a X 4 2 A 0.r.0.Z 1 0 O ",
"q.q.:.q 0 9 f ,.q.q.:.a 0 0 q D e.e.,.f 0 0 0 A w.w.w.S e 0 0 f 0.0.w.Y w & 8 q e.0.r.*.y 0 w 0 >.0.e.,.f 4 0 4 S e.0.0.S 0 w 0 ",
"A f f q 0 q e C C C C e 0 0 w a C C C e w 0 0 a D C D f e 0 w a Z Z C V 0 & 0 0 C Z Z C e 0 w w A A h A i 4 w 0 a C C A a 0 w w ",
"8 $ 0 8 $ 0 $ 8 w w w w w w * & 0 0 8 8 w 0 0 w 8 $ 8 8 8 w w p 8 8 8 0 0 w p w 8 8 8 8 e w p w $ X X 0 0 8 e 0 8 $ 0 0 0 $ 8 w ",
"w & w w w e w w w & & w * * > & $ 0 $ & w w 0 w e w e w w w & * w 0 w w 8 8 0 $ w w w & w & & & p p 0 e e 8 w 8 w & * * w w w B ",
"w & w w & w & & e w * * = = N = w w & 0 p & w p w 8 w & & w & * * & w w w w e w w * > % B & B w = = & e e 8 e 8 w = * = * * * B "
};
