/* XPM */
static char *_167da7839954fdbb847ff509287279aK8Y0M4OmchkMcqEQ[] = {
/* columns rows colors chars-per-pixel */
"32 32 206 2 ",
"   c #3C2B21",
".  c #3C322A",
"X  c #3C3527",
"o  c #631D1D",
"O  c #5D1F2A",
"+  c #6A1E28",
"@  c #4B2527",
"#  c #4F272A",
"$  c #442F2E",
"%  c #512629",
"&  c #5E222C",
"*  c #562C2E",
"=  c #45322D",
"-  c #4F302E",
";  c #4B2B30",
":  c #5C2C32",
">  c #493933",
",  c #5F3838",
"<  c #6A2225",
"1  c #64242D",
"2  c #6D242A",
"3  c #6B292D",
"4  c #612026",
"5  c #72262B",
"6  c #73292E",
"7  c #622533",
"8  c #652935",
"9  c #6C2C34",
"0  c #672A39",
"q  c #6A2D39",
"w  c #682630",
"e  c #742C32",
"r  c #792E33",
"t  c #742E39",
"y  c #7A2E38",
"u  c #6D313C",
"i  c #67373D",
"p  c #733133",
"a  c #7A3335",
"s  c #74343C",
"d  c #7C343B",
"f  c #7C3A3E",
"g  c #52453F",
"h  c #48663D",
"j  c #5F3C42",
"k  c #643D42",
"l  c #6B3A44",
"z  c #6E3E49",
"x  c #733542",
"c  c #743A44",
"v  c #7C3C44",
"b  c #7C3E49",
"n  c #4F5F44",
"m  c #5C5547",
"M  c #6B474A",
"N  c #7F414A",
"B  c #7E4045",
"V  c #605D4E",
"C  c #645F53",
"Z  c #6B5956",
"A  c #4F6747",
"S  c #4E6A49",
"D  c #4A6547",
"F  c #52644B",
"G  c #526B4A",
"H  c #4F7D4E",
"J  c #51714A",
"K  c #5D6755",
"L  c #587554",
"P  c #636252",
"I  c #6B6156",
"U  c #647D5B",
"Y  c #6A7962",
"T  c #843C3D",
"R  c #8F3E3E",
"E  c #80363A",
"W  c #933F3D",
"Q  c #8C413D",
"!  c #91443E",
"~  c #833741",
"^  c #843B42",
"/  c #8A3E43",
"(  c #843F49",
")  c #8A3E48",
"_  c #943C48",
"`  c #864244",
"'  c #8C4245",
"]  c #8D4846",
"[  c #84434C",
"{  c #8D444A",
"}  c #874B4D",
"|  c #8D494D",
" . c #874A47",
".. c #924545",
"X. c #944946",
"o. c #994B46",
"O. c #91464B",
"+. c #93494D",
"@. c #9A4D48",
"#. c #844550",
"$. c #8C4653",
"%. c #864853",
"&. c #8B4B53",
"*. c #8B4D58",
"=. c #944651",
"-. c #934B52",
";. c #9C4956",
":. c #9C4653",
">. c #8F5353",
",. c #935559",
"<. c #995262",
"1. c #4E854C",
"2. c #578A4F",
"3. c #54904A",
"4. c #538552",
"5. c #548952",
"6. c #5A8B57",
"7. c #5A8459",
"8. c #5C9E52",
"9. c #5A9A5A",
"0. c #63835D",
"q. c #66825A",
"w. c #619E5B",
"e. c #609959",
"r. c #5DA54F",
"t. c #5DA25D",
"y. c #6CB44C",
"u. c #73B34E",
"i. c #72BA4F",
"p. c #71B047",
"a. c #65A25E",
"s. c #68A357",
"d. c #6EB453",
"f. c #6CBA54",
"g. c #6BB65B",
"h. c #6EBA59",
"j. c #65B659",
"k. c #74B753",
"l. c #79B554",
"z. c #74BA55",
"x. c #7BBA57",
"c. c #74B45C",
"v. c #7AB45A",
"b. c #72BC5A",
"n. c #7ABB5B",
"m. c #658163",
"M. c #639D63",
"N. c #669C66",
"B. c #6F9E72",
"V. c #65A562",
"C. c #6BA265",
"Z. c #6BAC62",
"A. c #6CB666",
"S. c #6FBA64",
"D. c #6DBE6C",
"F. c #73B564",
"G. c #7BB766",
"H. c #74BC64",
"J. c #79BC65",
"K. c #73BB6A",
"L. c #7ABB6A",
"P. c #74B975",
"I. c #73C15D",
"U. c #7CC45B",
"Y. c #7DC85F",
"T. c #6EC167",
"R. c #74C562",
"E. c #7CD36A",
"W. c #79C271",
"Q. c #86BE4F",
"!. c #84BE56",
"~. c #83C45B",
"^. c #87C859",
"/. c #92CE5E",
"(. c #83CA64",
"). c #8CCF66",
"_. c #83CD68",
"`. c #8ACD69",
"'. c #8DC761",
"]. c #86D16B",
"[. c #8ED46B",
"{. c #8ED366",
"}. c #91DB6E",
"|. c #9CD567",
" X c #95DD73",
".X c #9CDE72",
"XX c #A3DE6D",
"oX c #A9DD6E",
"OX c #AADB66",
"+X c #A6DF72",
"@X c #B0DE71",
"#X c #97E476",
"$X c #99E575",
"%X c #9BE375",
"&X c #9BE974",
"*X c #99E579",
"=X c #9CE379",
"-X c #9BEA7B",
";X c #A4E26D",
":X c #ACE16E",
">X c #A4E372",
",X c #AEE272",
"<X c #A1E47A",
"1X c #A6EA7D",
"2X c #AAE378",
"3X c #AAE883",
/* pixels */
"OX:X,X+X%X$X$X%XoX@XoXoX>X$X=X-XXX;XoXXX<X*X#X&XXX,X:X;X&X&X#X*X",
">X/.Q.|.1X}.U.{.2X|.Q./.1X}.U.).>X.X^.^.=X*X(.U..X+X/.^.#X&X].Y.",
"-X~.p.'.3X).y.~.<X[.y.U.-X[.u.x.<X Xi.i.=X Xz.y..X%XU.u. X=XU.f.",
"E.R.k.!.`.~.f.U._.(.h.b.].(.x.x.`._.f.f.`.).z.l.(.].b.d.(.`.n.k.",
"j.g.b.z.y.f.z.b.d.c.c.c.d.z.x.x.d.g.f.h.k.l.l.n.d.g.g.c.v.l.l.l.",
"D.g.J.n.y.f.I.h.J.c.G.J.g.d.x.l.H.S.R.I.y.u.x.v.H.g.K.L.v.l.x.l.",
"D.A.F.n.b.b.I.h.J.F.F.K.H.b.z.n.L.K.S.b.b.x.n.c.H.K.K.K.G.n.n.z.",
"t.t.s.s.c.b.g.g.8.a.t.t.A.S.d.c.e.a.8.r.b.b.c.H.8.a.w.w.Z.F.g.h.",
"7.4.2.s.L.K.S.Z.1.6.5.9.P.P.K.F.5.H 2.3.A.K.W.K.5.4.6.1.P.P.K.T.",
"F F h q.C.C.C.6.h A D L B.N.V.e.A F G h N.w.M.N.J A G D N.M.9.9.",
"; -   m 0.0.0.n . = $ g Y m.7.L . = X X U 0.U Y > . . . K m.0.7.",
"x c i M I P I m k l l M Z I K C k z l , I P V Z M l z j Z C P P ",
"$.$.$.s & % * i [ $.$.b : # # 8 $.=.-.v : @ * : b $.<.#.i % @ - ",
"=.O.;./ t s u v -.=.=.` s s u v :._ =.| f s v d { O.;.O.~ s u c ",
"Q Q ....| >.}  ...R R .. .,.&.-.o.W ' ] | -.+.' +.' Q ' ..+.| %.",
"! @.X... .`  .` ....@.@.T ] T ' ! o.X.] +.' / ' ..Q X.@...X.` ` ",
"Q ' ..] +.a o a ..' X...X.E < 6 ..' +.' { / 5 5 / +...' +./ r < ",
"+.+.' ' ..T r E +.+...] +.' r e +.O.{ ' -...y 6 { +...{ -.O.d 6 ",
"/ ..{ ..+.' { ..{ +.' / ..{ ..+.' +.' ' ..{ ..+.' +...' ......+.",
"{ { ^ O.-.' O.../ O.^ ' -.' { { / +./ ' +.' ..{ ' +.../ { ..' ..",
"-.E + d =.{ -.O.-.^ 2 y =.O.O.{ O.' 2 e ' O.+.' +.' r 6 ^ +.O...",
"{ d 2 ~ -.{ ) O.-.~ 2 y O.{ ) O.+./ 5 6 / ....' +./ e 5 T +...{ ",
"| { { | -.d 2 d | { | -.-.^ 2 e { { +.{ -.' 6 2 ' +.+.{ +.' r 2 ",
"{ { { ' O.^ 2 d -. .| ' | ` e e |  .| ` O.{ e 6 { | { ' -.{ a 2 ",
"+.a 2 d | | ' | +.f 2 a { | ' | | { e e { -.} -.$. .e 2 ^ | { | ",
"+.p e f `  .{ ` | f 2 p +.| ^ | { ` e 9 $.-.( } $.| t 1 ( &.[ } ",
"9 s ` f 3 v -.v 3 s [ f 3 f |  .9 9 ( [ t s $.&.t 9 v &.s 9 ( -.",
"1 v &.f 1 s [ v 4 s &.B 4 9 } [ 1 9 $.&.1 1 [ #.w 1 [ ,.9 4 v &.",
"[ c 9 v [ s 9 v [ N 9 u &.N w s [ N u q #.[ u q N %.x 7 v %.v q ",
"%.x & s *.v 1 s *.v & q *.[ 7 8 %.N 7 7 #.%.q 1 #.%.q O b *.x & ",
"q u 8 8 x u 8 q u q u u q u u 8 x q q u q u u 8 u 8 q u u q q 8 ",
"7 7 0 0 7 7 7 8 8 0 0 0 0 7 7 0 7 q 8 7 q 8 7 q 7 q 8 7 8 7 7 q "
};
